<svg width="491" height="491" viewBox="0 0 491 491" fill="none" xmlns="http://www.w3.org/2000/svg">
<path opacity="0.2" d="M51.8803 193.62C23.2276 300.553 86.6865 410.467 193.62 439.12C300.553 467.772 410.467 404.313 439.12 297.38C467.772 190.447 404.313 80.5329 297.38 51.8802C214.67 29.7181 130.176 62.6631 82.8819 128.209" stroke="white" stroke-width="3" stroke-linecap="round"/>
<path opacity="0.2" d="M97.7231 245.5C97.7231 327.115 163.885 393.277 245.5 393.277C327.115 393.277 393.277 327.115 393.277 245.5C393.277 163.885 327.115 97.723 245.5 97.723C182.373 97.723 128.491 137.305 107.319 193.005" stroke="white" stroke-width="3" stroke-linecap="round"/>
<g clip-path="url(#clip0)">
<path d="M393.668 48.7334C385.685 48.7334 378.17 50.7729 371.615 54.3572C365.06 50.7729 357.545 48.7334 349.562 48.7334C340.537 48.7334 331.796 51.3401 324.284 56.2721C323.355 56.8819 323.096 58.1292 323.706 59.058C324.316 59.9868 325.564 60.2454 326.492 59.6356C333.347 55.1358 341.324 52.7571 349.562 52.7571C356.016 52.7571 362.134 54.2187 367.605 56.8257C355.708 65.0056 347.825 78.6166 347.561 94.0521C335.33 101.45 326.798 114.368 325.436 129.326C314.579 121.705 307.468 109.094 307.468 94.8515C307.468 84.1477 311.489 73.9469 318.79 66.1286C319.548 65.3167 319.504 64.0435 318.693 63.2854C317.88 62.527 316.607 62.5709 315.849 63.3829C307.85 71.9486 303.444 83.1243 303.444 94.8512C303.444 111.363 312.168 125.873 325.247 134.021C325.506 159.229 346.09 179.658 371.359 179.658C380.219 179.658 388.825 177.139 396.247 172.373C403.472 167.733 409.251 161.197 412.959 153.472C413.439 152.47 413.017 151.268 412.015 150.787C411.014 150.308 409.812 150.729 409.331 151.731C402.362 166.252 387.457 175.635 371.359 175.635C349.075 175.635 330.784 158.23 329.357 136.301C335.462 139.289 342.319 140.969 349.562 140.969C357.545 140.969 365.06 138.93 371.615 135.346C378.17 138.93 385.685 140.969 393.668 140.969C400.701 140.969 407.371 139.384 413.342 136.556C413.192 138.668 412.89 140.762 412.429 142.813C412.185 143.897 412.866 144.973 413.95 145.217C415.033 145.46 416.11 144.779 416.354 143.695C417.041 140.641 417.411 137.498 417.465 134.341C430.832 126.255 439.785 111.58 439.785 94.8512C439.785 69.4218 419.097 48.7334 393.668 48.7334ZM371.615 59.0112C382.894 65.9768 390.654 78.1146 391.563 92.0914C385.458 89.1036 378.602 87.4233 371.359 87.4233C364.325 87.4233 357.654 89.0088 351.683 91.8376C352.669 77.9676 360.404 65.935 371.615 59.0112ZM349.562 136.945C342.224 136.945 335.319 135.056 329.306 131.741C329.886 118.032 337.052 105.999 347.715 98.7322C348.901 112.888 356.507 125.246 367.605 132.877C362.134 135.484 356.016 136.945 349.562 136.945ZM351.605 96.3795C357.499 93.2333 364.224 91.4467 371.359 91.4467C378.697 91.4467 385.602 93.336 391.615 96.6511C391.006 111.031 383.151 123.566 371.615 130.691C360.005 123.522 352.125 110.873 351.605 96.3795ZM393.668 136.945C387.214 136.945 381.096 135.484 375.624 132.877C386.636 125.306 394.209 113.083 395.485 99.0664C405.952 106.413 412.934 118.399 413.422 132.012C407.528 135.158 400.803 136.945 393.668 136.945ZM417.312 129.66C416.066 114.772 407.717 101.874 395.673 94.3711C395.514 78.8043 387.604 65.0618 375.625 56.8257C381.096 54.219 387.214 52.7571 393.668 52.7571C416.879 52.7571 435.762 71.6405 435.762 94.8512C435.762 109.304 428.44 122.077 417.312 129.66Z" fill="white"/>
</g>
<g clip-path="url(#clip1)">
<path d="M193.347 104.224H183.191C187.413 94.6386 186.956 86.8788 185.359 81.6296C182.62 72.2722 173.377 62.116 159.683 62.116C156.031 62.116 152.38 62.8007 148.614 64.17C142.109 66.5664 137.773 69.1911 135.833 70.5604C133.893 69.1911 129.671 66.5664 123.052 64.17C119.286 62.8007 115.521 62.116 111.983 62.116C98.2892 62.116 89.046 72.2722 86.3072 81.6296C84.7096 87.2212 84.139 95.6657 89.5024 106.278H77.178C76.151 106.278 75.3522 107.077 75.3522 108.104C75.3522 109.131 76.151 109.93 77.178 109.93H91.6706C92.2412 110.957 92.9259 111.984 93.7247 113.011C105.593 130.128 131.382 148.729 136.061 149.87V149.984C136.061 149.984 136.175 149.984 136.289 149.87C136.404 149.87 136.518 149.87 136.632 149.87V149.756C140.626 147.816 165.389 131.84 178.398 112.897C179.653 111.185 180.68 109.474 181.593 107.762H193.575C194.602 107.762 195.401 106.963 195.401 105.936C195.401 104.909 194.374 104.224 193.347 104.224ZM175.088 110.957C162.992 128.645 140.74 142.909 135.947 145.99C131.04 142.909 108.902 128.531 96.6916 110.957C96.4634 110.615 96.2352 110.272 96.0069 109.93H112.782C113.466 109.93 114.151 109.588 114.494 108.903L122.139 93.8398L134.121 124.537C134.349 125.221 135.148 125.678 135.833 125.678C135.833 125.678 135.833 125.678 135.947 125.678C136.746 125.678 137.431 125.107 137.659 124.308L148.157 88.3623L153.749 106.507C153.977 107.191 154.548 107.648 155.232 107.762C155.917 107.876 156.602 107.534 157.058 106.963L161.509 100.458L165.275 106.849C165.617 107.419 166.187 107.762 166.872 107.762H177.142C176.458 108.903 175.773 109.93 175.088 110.957ZM179.197 104.224H168.013L163.335 96.2362C162.992 95.6657 162.422 95.3233 161.737 95.3233C161.052 95.3233 160.482 95.5515 160.139 96.1221L156.259 101.828L149.983 81.4013C149.755 80.6025 148.956 80.1461 148.157 80.032C147.359 80.032 146.56 80.6025 146.331 81.4013L135.719 118.032L124.193 88.5906C123.965 87.9059 123.28 87.4494 122.596 87.4494C121.797 87.4494 121.226 87.7918 120.884 88.4764L111.869 106.164H93.7247C89.1601 97.8338 87.9048 89.8458 89.9589 82.6566C92.3553 74.5545 100.229 65.8817 112.097 65.8817C115.292 65.8817 118.602 66.5664 121.911 67.7076C130.241 70.7887 134.692 74.3262 134.806 74.3262C135.491 74.8968 136.404 74.8968 137.088 74.3262C137.088 74.3262 141.539 70.7887 149.983 67.7076C153.292 66.4523 156.602 65.8817 159.797 65.8817C171.551 65.8817 179.539 74.5545 181.935 82.6566C183.875 89.2752 182.848 96.5786 179.197 104.224Z" fill="white"/>
</g>
<g clip-path="url(#clip2)">
<path d="M402.771 309.922C399.277 309.922 396.435 312.765 396.435 316.259C396.435 319.753 399.277 322.596 402.771 322.596C406.266 322.596 409.108 319.753 409.108 316.259C409.108 312.765 406.266 309.922 402.771 309.922ZM402.771 319.607C400.925 319.607 399.423 318.105 399.423 316.259C399.423 314.413 400.925 312.911 402.771 312.911C404.618 312.911 406.12 314.413 406.12 316.259C406.12 318.105 404.618 319.607 402.771 319.607Z" fill="white"/>
<path d="M421.447 362.052C417.953 362.052 415.11 364.894 415.11 368.389C415.11 371.883 417.953 374.725 421.447 374.725C424.941 374.725 427.784 371.883 427.784 368.389C427.784 364.895 424.941 362.052 421.447 362.052ZM421.447 371.737C419.601 371.737 418.099 370.235 418.099 368.389C418.099 366.542 419.601 365.04 421.447 365.04C423.293 365.04 424.795 366.542 424.795 368.389C424.795 370.235 423.293 371.737 421.447 371.737Z" fill="white"/>
<path d="M443.252 383.46H441.422V375.864C441.422 373.587 439.57 371.734 437.292 371.734H433.296C433.597 370.669 433.761 369.548 433.761 368.389C433.761 368.024 433.742 367.664 433.711 367.307C439.684 360.91 442.969 352.605 442.969 343.855C442.969 326.726 430.187 312.08 413.233 309.773C411.307 306.679 408.049 304.499 404.266 304.039V303.193C404.266 300.809 402.326 298.87 399.943 298.87H398.552V294.606H398.556C400.773 294.606 402.576 292.803 402.576 290.586V285.902C402.576 285.077 401.907 284.408 401.082 284.408H381.872C381.047 284.408 380.377 285.077 380.377 285.902V290.586C380.377 292.803 382.181 294.606 384.398 294.606H384.402V298.87H383.012C380.628 298.87 378.688 300.809 378.688 303.193V306.756C378.688 307.582 379.357 308.251 380.182 308.251C381.008 308.251 381.677 307.582 381.677 306.756V303.193C381.677 302.457 382.276 301.859 383.012 301.859H399.942C400.678 301.859 401.277 302.457 401.277 303.193V304.039C395.19 304.779 390.457 309.975 390.457 316.259C390.457 322.543 395.19 327.739 401.277 328.479V335.551H388.053V328.745C388.053 327.919 387.384 327.25 386.559 327.25C385.734 327.25 385.065 327.919 385.065 328.745V335.551H381.677V313.125C381.677 312.3 381.008 311.63 380.183 311.63C379.357 311.63 378.688 312.3 378.688 313.125V343.09C378.688 344.791 379.675 346.264 381.107 346.97L383.316 351.955C383.757 352.95 384.652 353.652 385.694 353.865V357.151C385.694 358.895 387.113 360.315 388.858 360.315H394.097C395.841 360.315 397.261 358.895 397.261 357.151V353.865C398.302 353.652 399.197 352.95 399.638 351.955L401.848 346.97C403.279 346.264 404.266 344.791 404.266 343.09V328.479C408.56 327.957 412.177 325.219 413.937 321.444C424.249 323.895 431.612 333.131 431.612 343.855C431.612 344.521 431.583 345.198 431.525 345.867C431.454 346.689 432.063 347.413 432.885 347.484C432.929 347.488 432.972 347.489 433.015 347.489C433.782 347.489 434.435 346.902 434.502 346.124C434.568 345.37 434.6 344.607 434.6 343.855C434.6 331.821 426.391 321.444 414.861 318.592C415.007 317.836 415.086 317.057 415.086 316.259C415.086 315.145 414.934 314.067 414.656 313.04C429.218 315.909 439.98 328.836 439.98 343.855C439.98 351.17 437.465 358.146 432.853 363.755C432.132 361.988 431.013 360.425 429.607 359.178C431.02 357.243 432.159 355.133 432.991 352.882C433.277 352.108 432.882 351.248 432.108 350.962C431.334 350.675 430.474 351.071 430.188 351.845C429.443 353.861 428.42 355.749 427.148 357.479C425.442 356.584 423.503 356.075 421.447 356.075C414.656 356.075 409.132 361.599 409.132 368.389C409.132 369.548 409.297 370.67 409.598 371.734H369.499C368.674 371.734 368.004 372.403 368.004 373.228C368.004 374.054 368.674 374.723 369.499 374.723H410.891C413.047 378.303 416.972 380.703 421.447 380.703C425.922 380.703 429.846 378.303 432.003 374.723H437.292C437.922 374.723 438.434 375.235 438.434 375.864V383.46H358.181V375.864C358.181 375.235 358.693 374.723 359.322 374.723H363.13C363.956 374.723 364.625 374.054 364.625 373.228C364.625 372.403 363.956 371.734 363.13 371.734H359.322C357.045 371.734 355.192 373.587 355.192 375.864V383.46H353.142C352.317 383.46 351.648 384.129 351.648 384.955C351.648 385.78 352.317 386.449 353.142 386.449H443.252C444.077 386.449 444.746 385.78 444.746 384.955C444.746 384.129 444.077 383.46 443.252 383.46V383.46ZM395.563 298.87H387.391V294.606H395.563V298.87ZM385.897 291.618H384.398C383.829 291.618 383.366 291.155 383.366 290.586V287.396H399.588V290.586C399.588 291.155 399.125 291.618 398.556 291.618H397.058H385.897ZM394.272 357.151C394.272 357.248 394.193 357.326 394.097 357.326H388.858C388.761 357.326 388.682 357.247 388.682 357.151V353.934H394.272V357.151ZM396.906 350.744C396.852 350.866 396.73 350.945 396.597 350.945H395.766H387.188H386.358C386.224 350.945 386.102 350.866 386.048 350.744L384.572 347.414H398.382L396.906 350.744ZM401.277 343.09C401.277 343.826 400.678 344.425 399.943 344.425H383.012C382.276 344.425 381.677 343.826 381.677 343.09V338.54H401.277V343.09ZM411.643 319.128C411.612 319.2 411.587 319.275 411.567 319.352C410.288 322.978 406.83 325.584 402.771 325.584C397.629 325.584 393.446 321.401 393.446 316.259C393.446 311.117 397.629 306.933 402.771 306.933C407.913 306.933 412.097 311.117 412.097 316.259C412.097 317.26 411.937 318.224 411.643 319.128ZM421.447 377.714C416.305 377.714 412.122 373.531 412.122 368.389C412.122 363.247 416.305 359.063 421.447 359.063C426.589 359.063 430.772 363.247 430.772 368.389C430.772 373.531 426.589 377.714 421.447 377.714V377.714Z" fill="white"/>
</g>
<g clip-path="url(#clip3)">
<path d="M135.365 339.914C135.2 335.188 133.343 330.672 130.135 327.198C126.848 323.639 123.53 320.095 120.189 316.566C123.495 313.074 126.833 309.505 130.134 305.93C133.342 302.455 135.2 297.939 135.364 293.213C135.529 288.486 133.989 283.852 131.028 280.165C125.198 272.909 118.568 266.279 111.322 260.459C107.634 257.498 103.006 255.957 98.2736 256.122C93.5477 256.287 89.0317 258.145 85.5575 261.353C81.9853 264.651 78.4172 267.989 74.9241 271.295C72.2555 268.768 69.5783 266.257 66.8931 263.763C66.1764 263.097 65.0557 263.139 64.39 263.855C63.7243 264.572 63.7654 265.693 64.4823 266.358C86.1937 286.526 107.407 307.804 127.532 329.601C130.165 332.452 131.689 336.159 131.824 340.037C131.959 343.917 130.696 347.719 128.267 350.744C122.602 357.795 116.155 364.242 109.104 369.907C106.079 372.336 102.273 373.599 98.3971 373.465C94.5185 373.33 90.8122 371.805 87.9607 369.172C65.3102 348.26 43.2241 326.174 22.3154 303.526C19.6824 300.675 18.1578 296.969 18.0227 293.09C17.8877 289.211 19.151 285.408 21.58 282.383C27.2451 275.332 33.6926 268.885 40.7429 263.22C46.0543 258.954 53.5268 258.475 59.3374 262.028C60.1715 262.538 61.2618 262.275 61.7723 261.441C62.2826 260.606 62.0198 259.516 61.1852 259.006C54.104 254.676 44.9971 255.26 38.5248 260.459C31.2745 266.284 24.6445 272.914 18.8185 280.165C15.8578 283.852 14.3179 288.486 14.4827 293.213C14.6473 297.939 16.5048 302.455 19.7128 305.929C22.9988 309.489 26.3168 313.032 29.6583 316.561C26.3527 320.053 23.0139 323.622 19.7131 327.197C16.5046 330.672 14.647 335.188 14.4829 339.914C14.3188 344.641 15.8592 349.275 18.8209 352.962C24.6428 360.211 31.2723 366.841 38.525 372.668C42.1064 375.545 46.4942 377.009 50.8993 377.009C54.4551 377.009 58.0223 376.055 61.1852 374.121C62.0198 373.611 62.2826 372.52 61.7723 371.686C61.262 370.851 60.1715 370.589 59.3374 371.099C53.5266 374.652 46.0538 374.173 40.7431 369.907C33.6905 364.241 27.2437 357.793 21.5821 350.744C19.152 347.718 17.8877 343.916 18.0227 340.037C18.1573 336.159 19.6819 332.452 22.3154 329.601C25.5628 326.083 28.8469 322.572 32.0995 319.135C45.1687 332.854 58.633 346.319 72.3535 359.389C69.6657 361.932 67.0232 364.408 64.4811 366.766C63.7642 367.431 63.7219 368.552 64.3871 369.269C64.7361 369.645 65.2103 369.836 65.6862 369.836C66.1171 369.836 66.549 369.679 66.8903 369.363C69.4848 366.956 72.183 364.427 74.9274 361.83C78.4561 365.171 81.9993 368.489 85.558 371.774C89.0321 374.983 93.5481 376.84 98.2741 377.005C98.5036 377.013 98.7322 377.017 98.9611 377.016C103.448 377.016 107.814 375.486 111.323 372.668C118.573 366.843 125.203 360.213 131.029 352.962C133.99 349.275 135.529 344.641 135.365 339.914V339.914ZM77.4943 273.74C80.9335 270.485 84.4448 267.201 87.9605 263.955C90.8119 261.322 94.5185 259.798 98.3969 259.662C102.276 259.527 106.078 260.791 109.104 263.22C116.15 268.879 122.598 275.327 128.267 282.383C130.696 285.408 131.959 289.211 131.824 293.09C131.689 296.968 130.165 300.675 127.531 303.526C124.283 307.044 120.999 310.555 117.746 313.993C104.67 300.266 91.2025 286.799 77.4943 273.74V273.74Z" fill="white"/>
<path d="M44.4744 304.901C41.5137 308.535 41.619 313.717 44.725 317.224C53.9318 327.619 63.8699 337.557 74.2638 346.763C76.0689 348.361 78.317 349.165 80.5703 349.165C82.6947 349.165 84.8235 348.45 86.5868 347.013C93.4551 341.416 99.776 335.095 105.373 328.227H105.373C108.334 324.593 108.229 319.411 105.123 315.904C95.9167 305.509 85.9785 295.571 75.5839 286.365C72.0771 283.259 66.8945 283.153 63.2609 286.114C56.3927 291.712 50.072 298.032 44.4744 304.901V304.901ZM65.4986 288.861C66.6061 287.958 67.9427 287.509 69.2767 287.509C70.6907 287.509 72.1024 288.014 73.2352 289.017C83.5228 298.129 93.3592 307.965 102.471 318.252C104.421 320.454 104.486 323.708 102.627 325.989H102.627C97.181 332.672 91.0315 338.821 84.3489 344.267C82.0672 346.127 78.8139 346.061 76.6123 344.111C66.3254 335 56.4888 325.164 47.3764 314.875C45.4268 312.674 45.3612 309.42 47.2203 307.139C52.6665 300.456 58.8162 294.306 65.4986 288.861V288.861Z" fill="white"/>
<path d="M69.0094 306.457C70.6565 306.457 72.2049 305.816 73.3694 304.651C74.5343 303.486 75.1754 301.938 75.1754 300.291C75.1754 298.644 74.534 297.095 73.3696 295.931C72.2049 294.766 70.6565 294.125 69.0094 294.125C67.3623 294.125 65.8141 294.766 64.6492 295.931C63.4846 297.095 62.8434 298.644 62.8434 300.291C62.8434 301.938 63.4848 303.486 64.6492 304.651C65.8141 305.816 67.3623 306.457 69.0094 306.457V306.457ZM67.154 298.435C67.6499 297.94 68.3088 297.667 69.0094 297.667C69.7101 297.667 70.3694 297.94 70.8646 298.435C71.3605 298.931 71.6332 299.59 71.6332 300.29C71.6332 300.991 71.3605 301.65 70.8648 302.146C70.8646 302.146 70.8646 302.146 70.8646 302.146C70.3689 302.641 69.7101 302.914 69.0094 302.914C68.3088 302.914 67.6497 302.641 67.154 302.146C66.6584 301.65 66.3856 300.991 66.3856 300.29C66.3856 299.59 66.6584 298.931 67.154 298.435Z" fill="white"/>
<path d="M58.6503 316.813C60.2296 316.813 61.8085 316.212 63.0105 315.01C63.0107 315.01 63.0107 315.01 63.0107 315.009C65.4146 312.605 65.4146 308.694 63.0107 306.289C60.606 303.885 56.6945 303.885 54.2903 306.289C53.1254 307.454 52.4843 309.002 52.4843 310.65C52.4843 312.297 53.1257 313.845 54.2903 315.01C55.4923 316.212 57.0712 316.813 58.6503 316.813ZM56.7949 308.794C57.3064 308.282 57.9782 308.027 58.6503 308.027C59.3221 308.027 59.9939 308.282 60.5054 308.794C61.5284 309.817 61.5284 311.482 60.5057 312.505C59.4825 313.528 57.8179 313.528 56.7947 312.505C56.2988 312.009 56.026 311.35 56.026 310.65C56.0262 309.949 56.2992 309.29 56.7949 308.794Z" fill="white"/>
<path d="M75.6272 315.629C76.8291 316.831 78.408 317.432 79.9871 317.432C81.5664 317.432 83.1453 316.831 84.3473 315.629H84.3475C86.7515 313.225 86.7515 309.313 84.3473 306.908C81.9433 304.505 78.0314 304.504 75.6269 306.909C73.2232 309.313 73.2232 313.225 75.6272 315.629ZM78.1317 309.413C78.6434 308.902 79.3155 308.646 79.9873 308.646C80.6592 308.646 81.331 308.902 81.8425 309.413C82.8655 310.436 82.8655 312.101 81.8427 313.124C80.8195 314.147 79.1549 314.147 78.1317 313.124C77.109 312.101 77.109 310.436 78.1317 309.413Z" fill="white"/>
<path d="M73.9883 317.267C71.5839 314.863 67.6722 314.863 65.2677 317.267C62.8638 319.671 62.8638 323.583 65.2677 325.987C66.47 327.189 68.0488 327.79 69.6282 327.79C71.2073 327.79 72.7861 327.189 73.9881 325.987C75.153 324.823 75.7941 323.274 75.7941 321.627C75.7941 319.98 75.153 318.432 73.9883 317.267V317.267ZM71.4838 323.482C71.4838 323.483 71.4835 323.483 71.4838 323.482C70.4608 324.505 68.796 324.506 67.7728 323.482C66.7498 322.459 66.7498 320.795 67.7728 319.772C68.2843 319.26 68.9563 319.004 69.6279 319.004C70.3 319.004 70.9718 319.26 71.4835 319.772C71.9792 320.267 72.252 320.926 72.252 321.627C72.252 322.327 71.9792 322.987 71.4838 323.482V323.482Z" fill="white"/>
<path d="M86.8365 326.838C88.0385 328.04 89.6173 328.641 91.1964 328.641C92.7758 328.641 94.3546 328.04 95.5566 326.838C95.5568 326.838 95.5568 326.838 95.5568 326.838C97.9608 324.434 97.9608 320.522 95.5568 318.118C93.1522 315.714 89.2407 315.714 86.8365 318.118C85.6716 319.282 85.0305 320.831 85.0305 322.478C85.0305 324.125 85.6719 325.673 86.8365 326.838ZM89.3413 320.622C89.8528 320.111 90.5246 319.855 91.1967 319.855C91.8685 319.855 92.5403 320.111 93.0518 320.622C94.0748 321.645 94.0748 323.31 93.0521 324.333C92.0288 325.356 90.3643 325.356 89.3411 324.333C88.8452 323.837 88.5724 323.179 88.5724 322.478C88.5726 321.777 88.8454 321.118 89.3413 320.622V320.622Z" fill="white"/>
<path d="M76.477 328.477C74.0731 330.881 74.0731 334.793 76.477 337.197C77.6792 338.399 79.2581 339 80.8374 339C82.4165 339 83.9954 338.399 85.1974 337.197C86.3623 336.033 87.0034 334.484 87.0034 332.837C87.0034 331.19 86.362 329.642 85.1974 328.477C82.7934 326.073 78.8815 326.073 76.477 328.477V328.477ZM82.6928 334.692C81.6698 335.715 80.005 335.716 78.9818 334.692C77.9588 333.669 77.9588 332.005 78.9816 330.982C79.4933 330.47 80.1651 330.214 80.8372 330.214C81.509 330.214 82.1809 330.47 82.6923 330.981C83.1883 331.477 83.461 332.136 83.461 332.837C83.4612 333.538 83.1885 334.197 82.6928 334.692V334.692Z" fill="white"/>
</g>
<g clip-path="url(#clip4)">
<path d="M246.548 278.839H253.155C254.523 278.839 255.632 277.729 255.632 276.361C255.632 274.992 254.523 273.883 253.155 273.883H246.548C245.179 273.883 244.07 274.993 244.07 276.361C244.07 277.729 245.179 278.839 246.548 278.839Z" fill="white"/>
<path d="M263.066 278.839H269.673C271.041 278.839 272.15 277.729 272.15 276.361C272.15 274.992 271.041 273.883 269.673 273.883H263.066C261.697 273.883 260.588 274.993 260.588 276.361C260.588 277.729 261.697 278.839 263.066 278.839Z" fill="white"/>
<path d="M246.138 241.396C246.599 242.088 247.374 242.499 248.199 242.499C248.25 242.499 248.302 242.497 248.353 242.494C249.235 242.439 250.02 241.919 250.415 241.129L260.326 221.308C260.938 220.084 260.442 218.595 259.218 217.984C257.995 217.372 256.506 217.868 255.894 219.091L247.892 235.094L243.653 228.736C242.894 227.598 241.356 227.29 240.218 228.049C239.079 228.808 238.771 230.346 239.53 231.485L246.138 241.396Z" fill="white"/>
<path d="M230.03 278.839H236.637C238.006 278.839 239.115 277.729 239.115 276.361C239.115 274.992 238.005 273.883 236.637 273.883H230.03C228.661 273.883 227.552 274.993 227.552 276.361C227.552 277.729 228.662 278.839 230.03 278.839Z" fill="white"/>
<path d="M322.53 187.99H282.061V183.86C282.061 180.673 279.468 178.079 276.28 178.079H223.423C220.235 178.079 217.641 180.673 217.641 183.86V187.99H177.172C173.985 187.99 171.391 190.583 171.391 193.771V282.968C171.391 286.156 173.985 288.749 177.172 288.749H230.856V292.879C230.856 296.067 233.449 298.66 236.637 298.66H240.767V316.83H230.03C226.842 316.83 224.248 319.424 224.248 322.611V330.044H216.815C215.447 330.044 214.338 331.154 214.338 332.522C214.338 333.89 215.447 335 216.815 335H253.155C254.523 335 255.632 333.89 255.632 332.522C255.632 331.154 254.523 330.044 253.155 330.044H229.204V322.611C229.204 322.156 229.574 321.785 230.03 321.785H269.673C270.128 321.785 270.499 322.156 270.499 322.611V330.044H263.065C261.697 330.044 260.588 331.154 260.588 332.522C260.588 333.89 261.697 335 263.065 335H282.887C284.256 335 285.365 333.89 285.365 332.522C285.365 331.154 284.255 330.044 282.887 330.044H275.454V322.611C275.454 319.423 272.86 316.83 269.673 316.83H258.936V298.66H263.065C266.253 298.66 268.847 296.066 268.847 292.879V288.749H322.53C325.718 288.749 328.311 286.156 328.311 282.968V193.771C328.312 190.583 325.718 187.99 322.53 187.99ZM253.981 316.83H245.722V298.66H253.981V316.83ZM323.356 282.968C323.356 283.423 322.986 283.794 322.53 283.794H259.762C258.394 283.794 257.285 284.904 257.285 286.272C257.285 287.64 258.394 288.749 259.762 288.749H263.892V292.879C263.892 293.334 263.521 293.705 263.066 293.705H256.459H236.637C236.182 293.705 235.811 293.334 235.811 292.879V288.749H249.851C251.22 288.749 252.329 287.64 252.329 286.272C252.329 284.903 251.22 283.794 249.851 283.794H177.172C176.717 283.794 176.346 283.424 176.346 282.968V268.928H323.356V282.968H323.356ZM323.356 263.972H176.346V232.588H195.462L199.908 241.479C200.612 242.887 202.027 243.761 203.601 243.761C205.175 243.761 206.591 242.886 207.295 241.478L211.74 232.588H224.367C225.618 245.548 236.57 255.714 249.851 255.714C263.133 255.714 274.085 245.548 275.335 232.588H289.495C290.433 232.588 291.291 232.058 291.711 231.219L296.102 222.437L300.493 231.219C300.912 232.058 301.77 232.588 302.709 232.588H323.356V263.972ZM229.204 230.11C229.204 218.726 238.467 209.463 249.851 209.463C261.236 209.463 270.499 218.726 270.499 230.11C270.499 241.495 261.236 250.758 249.851 250.758C238.467 250.758 229.204 241.495 229.204 230.11ZM323.356 227.633H304.24L299.795 218.743C299.091 217.335 297.676 216.46 296.102 216.46C294.527 216.46 293.112 217.335 292.408 218.743L287.963 227.633H275.335C274.085 214.673 263.133 204.508 249.851 204.508C236.57 204.508 225.618 214.673 224.367 227.633H210.208C209.27 227.633 208.412 228.163 207.992 229.002L203.601 237.785L199.21 229.002C198.79 228.163 197.932 227.633 196.994 227.633H176.346V193.771C176.346 193.316 176.717 192.945 177.172 192.945H259.762C261.131 192.945 262.24 191.836 262.24 190.467C262.24 189.099 261.13 187.99 259.762 187.99H222.597V183.86C222.597 183.405 222.967 183.034 223.423 183.034H276.28C276.735 183.034 277.106 183.405 277.106 183.86V187.99H269.673C268.305 187.99 267.195 189.099 267.195 190.467C267.195 191.836 268.305 192.945 269.673 192.945H322.53C322.986 192.945 323.356 193.316 323.356 193.771V227.633V227.633Z" fill="white"/>
</g>
<defs>
<clipPath id="clip0">
<rect x="303.444" y="46.0255" width="136.341" height="136.341" fill="white"/>
</clipPath>
<clipPath id="clip1">
<rect x="75.3522" y="46.0255" width="120.049" height="120.049" fill="white"/>
</clipPath>
<clipPath id="clip2">
<rect x="347.176" y="284.408" width="102.041" height="102.041" fill="white"/>
</clipPath>
<clipPath id="clip3">
<rect x="14.4705" y="256.11" width="120.906" height="120.906" fill="white"/>
</clipPath>
<clipPath id="clip4">
<rect x="171.391" y="178.079" width="156.921" height="156.921" fill="white"/>
</clipPath>
</defs>
</svg>
