<svg width="268" height="99" viewBox="0 0 268 99" fill="none" xmlns="http://www.w3.org/2000/svg">
<path fill-rule="evenodd" clip-rule="evenodd" d="M43.1721 8.75826C44.2729 8.75826 45.1653 9.64209 45.1653 10.7319C45.1653 11.8223 44.2729 12.7061 43.1721 12.7061C42.0717 12.7061 41.1794 11.8223 41.1794 10.7319C41.1794 9.64209 42.0717 8.75826 43.1721 8.75826ZM34.6513 42.2083C36.1185 42.2083 37.3078 43.3862 37.3078 44.8395C37.3078 46.2928 36.1185 47.4707 34.6513 47.4707C33.184 47.4707 31.9947 46.2928 31.9947 44.8395C31.9947 43.3862 33.184 42.2083 34.6513 42.2083ZM34.6513 33.1213C35.7521 33.1213 36.6439 34.0046 36.6439 35.0944C36.6439 36.1843 35.7521 37.0686 34.6513 37.0686C33.5504 37.0686 32.6586 36.1843 32.6586 35.0944C32.6586 34.0046 33.5504 33.1213 34.6513 33.1213ZM43.1721 37.993C44.2729 37.993 45.1653 38.8768 45.1653 39.9672C45.1653 41.0571 44.2729 41.9409 43.1721 41.9409C42.0717 41.9409 41.1794 41.0571 41.1794 39.9672C41.1794 38.8768 42.0717 37.993 43.1721 37.993ZM51.6924 33.1213C52.7927 33.1213 53.6845 34.0046 53.6845 35.0944C53.6845 36.1843 52.7927 37.0686 51.6924 37.0686C50.592 37.0686 49.6997 36.1843 49.6997 35.0944C49.6997 34.0046 50.592 33.1213 51.6924 33.1213ZM43.1721 28.2479C44.2729 28.2479 45.1653 29.1312 45.1653 30.2216C45.1653 31.312 44.2729 32.1953 43.1721 32.1953C42.0717 32.1953 41.1794 31.312 41.1794 30.2216C41.1794 29.1312 42.0717 28.2479 43.1721 28.2479ZM34.6513 13.63C35.7521 13.63 36.6439 14.5138 36.6439 15.6037C36.6439 16.6941 35.7521 17.5779 34.6513 17.5779C33.5504 17.5779 32.6586 16.6941 32.6586 15.6037C32.6586 14.5138 33.5504 13.63 34.6513 13.63V13.63ZM26.1304 18.5034C27.2308 18.5034 28.1226 19.3872 28.1226 20.477C28.1226 21.5669 27.2308 22.4502 26.1304 22.4502C25.0301 22.4502 24.1378 21.5669 24.1378 20.477C24.1378 19.3872 25.0301 18.5034 26.1304 18.5034V18.5034ZM17.6101 23.3756C18.7105 23.3756 19.6028 24.2589 19.6028 25.3493C19.6028 26.4397 18.7105 27.323 17.6101 27.323C16.5098 27.323 15.6169 26.4397 15.6169 25.3493C15.6169 24.2589 16.5098 23.3756 17.6101 23.3756ZM17.6101 33.1213C18.7105 33.1213 19.6028 34.0046 19.6028 35.0944C19.6028 36.1843 18.7105 37.0686 17.6101 37.0686C16.5098 37.0686 15.6169 36.1843 15.6169 35.0944C15.6169 34.0046 16.5098 33.1213 17.6101 33.1213ZM17.6101 42.8653C18.7105 42.8653 19.6028 43.7497 19.6028 44.8395C19.6028 45.9294 18.7105 46.8132 17.6101 46.8132C16.5098 46.8132 15.6169 45.9294 15.6169 44.8395C15.6169 43.7497 16.5098 42.8653 17.6101 42.8653ZM17.6101 52.6104C18.7105 52.6104 19.6028 53.4937 19.6028 54.5846C19.6028 55.6744 18.7105 56.5577 17.6101 56.5577C16.5098 56.5577 15.6169 55.6744 15.6169 54.5846C15.6169 53.4937 16.5098 52.6104 17.6101 52.6104V52.6104ZM17.6101 62.3555C18.7105 62.3555 19.6028 63.2388 19.6028 64.3286C19.6028 65.4195 18.7105 66.3028 17.6101 66.3028C16.5098 66.3028 15.6169 65.4195 15.6169 64.3286C15.6169 63.2388 16.5098 62.3555 17.6101 62.3555ZM17.6101 72.1006C18.7105 72.1006 19.6028 72.9844 19.6028 74.0743C19.6028 75.1646 18.7105 76.0485 17.6101 76.0485C16.5098 76.0485 15.6169 75.1646 15.6169 74.0743C15.6169 72.9844 16.5098 72.1006 17.6101 72.1006ZM26.1304 76.9729C27.2308 76.9729 28.1226 77.8567 28.1226 78.9471C28.1226 80.0369 27.2308 80.9208 26.1304 80.9208C25.0301 80.9208 24.1378 80.0369 24.1378 78.9471C24.1378 77.8567 25.0301 76.9729 26.1304 76.9729ZM34.6513 72.1006C35.7521 72.1006 36.6439 72.9844 36.6439 74.0743C36.6439 75.1646 35.7521 76.0485 34.6513 76.0485C33.5504 76.0485 32.6586 75.1646 32.6586 74.0743C32.6586 72.9844 33.5504 72.1006 34.6513 72.1006ZM34.6513 62.3555C35.7521 62.3555 36.6439 63.2388 36.6439 64.3286C36.6439 65.4195 35.7521 66.3028 34.6513 66.3028C33.5504 66.3028 32.6586 65.4195 32.6586 64.3286C32.6586 63.2388 33.5504 62.3555 34.6513 62.3555ZM43.1721 67.2288C44.2729 67.2288 45.1653 68.1121 45.1653 69.202C45.1653 70.2918 44.2729 71.1757 43.1721 71.1757C42.0717 71.1757 41.1794 70.2918 41.1794 69.202C41.1794 68.1121 42.0717 67.2288 43.1721 67.2288ZM51.6924 72.1006C52.7927 72.1006 53.6845 72.9844 53.6845 74.0743C53.6845 75.1646 52.7927 76.0485 51.6924 76.0485C50.592 76.0485 49.6997 75.1646 49.6997 74.0743C49.6997 72.9844 50.592 72.1006 51.6924 72.1006ZM60.2127 76.9729C61.3141 76.9729 62.2059 77.8567 62.2059 78.9471C62.2059 80.0369 61.3141 80.9208 60.2127 80.9208C59.1123 80.9208 58.2205 80.0369 58.2205 78.9471C58.2205 77.8567 59.1123 76.9729 60.2127 76.9729ZM68.734 72.1006C69.8343 72.1006 70.7267 72.9844 70.7267 74.0743C70.7267 75.1646 69.8343 76.0485 68.734 76.0485C67.6337 76.0485 66.7408 75.1646 66.7408 74.0743C66.7408 72.9844 67.6337 72.1006 68.734 72.1006ZM68.734 62.3555C69.8343 62.3555 70.7267 63.2388 70.7267 64.3286C70.7267 65.4195 69.8343 66.3028 68.734 66.3028C67.6337 66.3028 66.7408 65.4195 66.7408 64.3286C66.7408 63.2388 67.6337 62.3555 68.734 62.3555ZM60.2127 57.4832C61.3141 57.4832 62.2059 58.3665 62.2059 59.4569C62.2059 60.5467 61.3141 61.43 60.2127 61.43C59.1123 61.43 58.2205 60.5467 58.2205 59.4569C58.2205 58.3665 59.1123 57.4832 60.2127 57.4832ZM51.6924 52.6104C52.7927 52.6104 53.6845 53.4937 53.6845 54.5846C53.6845 55.6744 52.7927 56.5577 51.6924 56.5577C50.592 56.5577 49.6997 55.6744 49.6997 54.5846C49.6997 53.4937 50.592 52.6104 51.6924 52.6104ZM60.2132 47.7386C61.3141 47.7386 62.2064 48.6225 62.2064 49.7129C62.2064 50.8022 61.3141 51.6855 60.2132 51.6855C59.1129 51.6855 58.2211 50.8022 58.2211 49.7129C58.2211 48.6225 59.1129 47.7386 60.2132 47.7386ZM68.734 42.8653C69.8343 42.8653 70.7267 43.7497 70.7267 44.8395C70.7267 45.9294 69.8343 46.8132 68.734 46.8132C67.6337 46.8132 66.7408 45.9294 66.7408 44.8395C66.7408 43.7497 67.6337 42.8653 68.734 42.8653ZM68.734 33.1213C69.8343 33.1213 70.7267 34.0046 70.7267 35.0944C70.7267 36.1843 69.8343 37.0686 68.734 37.0686C67.6337 37.0686 66.7408 36.1843 66.7408 35.0944C66.7408 34.0046 67.6337 33.1213 68.734 33.1213ZM68.734 23.3756C69.8343 23.3756 70.7267 24.2589 70.7267 25.3493C70.7267 26.4397 69.8343 27.323 68.734 27.323C67.6337 27.323 66.7408 26.4397 66.7408 25.3493C66.7408 24.2589 67.6337 23.3756 68.734 23.3756ZM60.2127 18.5034C61.3141 18.5034 62.2059 19.3872 62.2059 20.477C62.2059 21.5669 61.3141 22.4502 60.2127 22.4502C59.1123 22.4502 58.2205 21.5669 58.2205 20.477C58.2205 19.3872 59.1123 18.5034 60.2127 18.5034V18.5034ZM51.6924 13.63C52.7927 13.63 53.6845 14.5138 53.6845 15.6037C53.6845 16.6941 52.7927 17.5779 51.6924 17.5779C50.592 17.5779 49.6997 16.6941 49.6997 15.6037C49.6997 14.5138 50.592 13.63 51.6924 13.63V13.63ZM60.2137 65.9127C62.048 65.9127 63.5347 67.3852 63.5347 69.202C63.5347 71.0187 62.048 72.4918 60.2137 72.4918C58.3795 72.4918 56.8928 71.0187 56.8928 69.202C56.8928 67.3852 58.3795 65.9127 60.2137 65.9127ZM51.6924 61.0399C53.5266 61.0399 55.0133 62.5124 55.0133 64.3292C55.0133 66.1459 53.5266 67.6184 51.6924 67.6184C49.8587 67.6184 48.3714 66.1459 48.3714 64.3292C48.3714 62.5124 49.8587 61.0399 51.6924 61.0399ZM43.1726 56.1671C45.0069 56.1671 46.4935 57.6401 46.4935 59.4569C46.4935 61.2736 45.0069 62.7462 43.1726 62.7462C41.3384 62.7462 39.8511 61.2736 39.8511 59.4569C39.8511 57.6401 41.3384 56.1671 43.1726 56.1671ZM26.131 65.9127C27.9652 65.9127 29.4524 67.3852 29.4524 69.202C29.4524 71.0187 27.9652 72.4918 26.131 72.4918C24.2967 72.4918 22.81 71.0187 22.81 69.202C22.81 67.3852 24.2967 65.9127 26.131 65.9127ZM26.1304 56.1671C27.9647 56.1671 29.4514 57.6401 29.4514 59.4569C29.4514 61.2736 27.9647 62.7462 26.1304 62.7462C24.2962 62.7462 22.8095 61.2736 22.8095 59.4569C22.8095 57.6401 24.2962 56.1671 26.1304 56.1671ZM26.131 46.423C27.9652 46.423 29.4524 47.8956 29.4524 49.7123C29.4524 51.5291 27.9652 53.0016 26.131 53.0016C24.2967 53.0016 22.81 51.5291 22.81 49.7123C22.81 47.8956 24.2967 46.423 26.131 46.423ZM26.1304 36.6774C27.9647 36.6774 29.4514 38.1505 29.4514 39.9672C29.4514 41.784 27.9647 43.2565 26.1304 43.2565C24.2962 43.2565 22.8095 41.784 22.8095 39.9672C22.8095 38.1505 24.2962 36.6774 26.1304 36.6774ZM34.6513 51.2948C36.4855 51.2948 37.9727 52.7673 37.9727 54.5846C37.9727 56.4014 36.4855 57.8739 34.6513 57.8739C32.817 57.8739 31.3303 56.4014 31.3303 54.5846C31.3303 52.7673 32.817 51.2948 34.6513 51.2948ZM43.1726 46.423C45.0069 46.423 46.4935 47.8956 46.4935 49.7123C46.4935 51.5291 45.0069 53.0016 43.1726 53.0016C41.3384 53.0016 39.8511 51.5291 39.8511 49.7123C39.8511 47.8956 41.3384 46.423 43.1726 46.423ZM51.6924 41.5502C53.5266 41.5502 55.0133 43.0227 55.0133 44.8395C55.0133 46.6563 53.5266 48.1288 51.6924 48.1288C49.8587 48.1288 48.3714 46.6563 48.3714 44.8395C48.3714 43.0227 49.8587 41.5502 51.6924 41.5502ZM60.2132 36.6774C62.0474 36.6774 63.5341 38.1505 63.5341 39.9672C63.5341 41.784 62.0474 43.2565 60.2132 43.2565C58.3789 43.2565 56.8923 41.784 56.8923 39.9672C56.8923 38.1505 58.3789 36.6774 60.2132 36.6774ZM60.2137 26.9323C62.048 26.9323 63.5347 28.4048 63.5347 30.2216C63.5347 32.0384 62.048 33.5114 60.2137 33.5114C58.3795 33.5114 56.8928 32.0384 56.8928 30.2216C56.8928 28.4048 58.3795 26.9323 60.2137 26.9323ZM51.6924 22.06C53.5266 22.06 55.0133 23.5325 55.0133 25.3493C55.0133 27.1661 53.5266 28.6391 51.6924 28.6391C49.8587 28.6391 48.3714 27.1661 48.3714 25.3493C48.3714 23.5325 49.8587 22.06 51.6924 22.06V22.06ZM43.1726 17.1877C45.0069 17.1877 46.4935 18.6603 46.4935 20.477C46.4935 22.2938 45.0069 23.7663 43.1726 23.7663C41.3384 23.7663 39.8511 22.2938 39.8511 20.477C39.8511 18.6603 41.3384 17.1877 43.1726 17.1877ZM34.6513 22.06C36.4855 22.06 37.9727 23.5325 37.9727 25.3493C37.9727 27.1661 36.4855 28.6391 34.6513 28.6391C32.817 28.6391 31.3303 27.1661 31.3303 25.3493C31.3303 23.5325 32.817 22.06 34.6513 22.06V22.06ZM85.7757 73.5117C86.0898 73.5117 86.3442 73.7636 86.3442 74.0743C86.3442 74.3849 86.0898 74.6368 85.7757 74.6368C85.4621 74.6368 85.2077 74.3849 85.2077 74.0743C85.2077 73.7636 85.4621 73.5117 85.7757 73.5117ZM85.7757 63.7661C86.0898 63.7661 86.3442 64.018 86.3442 64.3292C86.3442 64.6398 86.0898 64.8917 85.7757 64.8917C85.4621 64.8917 85.2077 64.6398 85.2077 64.3292C85.2077 64.018 85.4621 63.7661 85.7757 63.7661ZM85.7757 54.0215C86.0898 54.0215 86.3442 54.2734 86.3442 54.5841C86.3442 54.8947 86.0898 55.1466 85.7757 55.1466C85.4621 55.1466 85.2077 54.8947 85.2077 54.5841C85.2077 54.2734 85.4621 54.0215 85.7757 54.0215V54.0215ZM85.7757 44.277C86.0898 44.277 86.3442 44.5289 86.3442 44.8395C86.3442 45.1501 86.0898 45.402 85.7757 45.402C85.4621 45.402 85.2077 45.1501 85.2077 44.8395C85.2077 44.5289 85.4621 44.277 85.7757 44.277ZM85.7757 34.5319C86.0898 34.5319 86.3442 34.7838 86.3442 35.0944C86.3442 35.405 86.0898 35.6569 85.7757 35.6569C85.4621 35.6569 85.2077 35.405 85.2077 35.0944C85.2077 34.7838 85.4621 34.5319 85.7757 34.5319ZM85.7757 24.7862C86.0898 24.7862 86.3442 25.0382 86.3442 25.3493C86.3442 25.6599 86.0898 25.9118 85.7757 25.9118C85.4621 25.9118 85.2077 25.6599 85.2077 25.3493C85.2077 25.0382 85.4621 24.7862 85.7757 24.7862ZM43.1721 97.8742C43.4857 97.8742 43.74 98.1261 43.74 98.4373C43.74 98.7479 43.4857 98.9998 43.1721 98.9998C42.8585 98.9998 42.6041 98.7479 42.6041 98.4373C42.6041 98.1261 42.8585 97.8742 43.1721 97.8742ZM34.6513 93.0019C34.9649 93.0019 35.2192 93.2538 35.2192 93.5644C35.2192 93.8751 34.9649 94.127 34.6513 94.127C34.3376 94.127 34.0833 93.8751 34.0833 93.5644C34.0833 93.2538 34.3376 93.0019 34.6513 93.0019ZM51.6918 93.0019C52.006 93.0019 52.2603 93.2538 52.2603 93.5644C52.2603 93.8751 52.006 94.127 51.6918 94.127C51.3782 94.127 51.1239 93.8751 51.1239 93.5644C51.1239 93.2538 51.3782 93.0019 51.6918 93.0019ZM43.1721 88.1291C43.4862 88.1291 43.7406 88.381 43.7406 88.6922C43.7406 89.0028 43.4862 89.2547 43.1721 89.2547C42.8585 89.2547 42.6041 89.0028 42.6041 88.6922C42.6041 88.381 42.8585 88.1291 43.1721 88.1291ZM68.734 82.8325C69.2842 82.8325 69.7304 83.2744 69.7304 83.8194C69.7304 84.3648 69.2842 84.8067 68.734 84.8067C68.1833 84.8067 67.7371 84.3648 67.7371 83.8194C67.7371 83.2744 68.1833 82.8325 68.734 82.8325ZM51.6913 82.8325C52.242 82.8325 52.6882 83.2744 52.6882 83.8194C52.6882 84.3648 52.242 84.8067 51.6913 84.8067C51.1411 84.8067 50.6955 84.3648 50.6955 83.8194C50.6955 83.2744 51.1411 82.8325 51.6913 82.8325ZM77.2543 77.9597C77.8045 77.9597 78.2512 78.4021 78.2512 78.9471C78.2512 79.492 77.8045 79.9334 77.2543 79.9334C76.7041 79.9334 76.2585 79.492 76.2585 78.9471C76.2585 78.4021 76.7041 77.9597 77.2543 77.9597ZM77.2554 68.2146C77.8055 68.2146 78.2512 68.6571 78.2512 69.202C78.2512 69.7469 77.8055 70.1888 77.2554 70.1888C76.7052 70.1888 76.259 69.7469 76.259 69.202C76.259 68.6571 76.7052 68.2146 77.2554 68.2146ZM77.2543 58.4695C77.8045 58.4695 78.2512 58.9114 78.2512 59.4563C78.2512 60.0013 77.8045 60.4437 77.2543 60.4437C76.7041 60.4437 76.2585 60.0013 76.2585 59.4563C76.2585 58.9114 76.7041 58.4695 77.2543 58.4695ZM77.2554 48.7255C77.8055 48.7255 78.2512 49.1669 78.2512 49.7129C78.2512 50.2572 77.8055 50.6986 77.2554 50.6986C76.7052 50.6986 76.259 50.2572 76.259 49.7129C76.259 49.1669 76.7052 48.7255 77.2554 48.7255ZM77.2543 38.9798C77.8045 38.9798 78.2512 39.4218 78.2512 39.9672C78.2512 40.5121 77.8045 40.9535 77.2543 40.9535C76.7041 40.9535 76.2585 40.5121 76.2585 39.9672C76.2585 39.4218 76.7041 38.9798 77.2543 38.9798ZM77.2554 29.2348C77.8055 29.2348 78.2512 29.6761 78.2512 30.2216C78.2512 30.7665 77.8055 31.2084 77.2554 31.2084C76.7052 31.2084 76.259 30.7665 76.259 30.2216C76.259 29.6761 76.7052 29.2348 77.2554 29.2348ZM77.2543 19.4897C77.8045 19.4897 78.2512 19.9316 78.2512 20.4765C78.2512 21.022 77.8045 21.4639 77.2543 21.4639C76.7041 21.4639 76.2585 21.022 76.2585 20.4765C76.2585 19.9316 76.7041 19.4897 77.2543 19.4897ZM68.734 53.5972C69.2842 53.5972 69.7304 54.0386 69.7304 54.5841C69.7304 55.1295 69.2842 55.5709 68.734 55.5709C68.1833 55.5709 67.7371 55.1295 67.7371 54.5841C67.7371 54.0386 68.1833 53.5972 68.734 53.5972V53.5972ZM68.734 14.6168C69.2842 14.6168 69.7304 15.0588 69.7304 15.6037C69.7304 16.1491 69.2842 16.5905 68.734 16.5905C68.1833 16.5905 67.7371 16.1491 67.7371 15.6037C67.7371 15.0588 68.1833 14.6168 68.734 14.6168ZM60.2132 9.74403C60.7639 9.74403 61.2095 10.1865 61.2095 10.7314C61.2095 11.2763 60.7639 11.7182 60.2132 11.7182C59.663 11.7182 59.2169 11.2763 59.2169 10.7314C59.2169 10.1865 59.663 9.74403 60.2132 9.74403ZM51.6913 4.87228C52.242 4.87228 52.6882 5.3142 52.6882 5.85912C52.6882 6.40404 52.242 6.84542 51.6913 6.84542C51.1411 6.84542 50.6955 6.40404 50.6955 5.85912C50.6955 5.3142 51.1411 4.87228 51.6913 4.87228ZM43.1721 0C43.7222 0 44.1684 0.441382 44.1684 0.986305C44.1684 1.53176 43.7222 1.97368 43.1721 1.97368C42.6214 1.97368 42.1752 1.53176 42.1752 0.986305C42.1752 0.441382 42.6214 0 43.1721 0V0ZM34.6513 4.87228C35.2014 4.87228 35.647 5.3142 35.647 5.85912C35.647 6.40404 35.2014 6.84542 34.6513 6.84542C34.1011 6.84542 33.6549 6.40404 33.6549 5.85912C33.6549 5.3142 34.1011 4.87228 34.6513 4.87228ZM26.1304 9.74403C26.6806 9.74403 27.1273 10.1865 27.1273 10.7314C27.1273 11.2763 26.6806 11.7182 26.1304 11.7182C25.5803 11.7182 25.1346 11.2763 25.1346 10.7314C25.1346 10.1865 25.5803 9.74403 26.1304 9.74403ZM17.6101 14.6168C18.1603 14.6168 18.6059 15.0588 18.6059 15.6037C18.6059 16.1491 18.1603 16.5905 17.6101 16.5905C17.0589 16.5905 16.6133 16.1491 16.6133 15.6037C16.6133 15.0588 17.0589 14.6168 17.6101 14.6168ZM9.08877 19.4897C9.63894 19.4897 10.0851 19.9316 10.0851 20.4765C10.0851 21.022 9.63894 21.4639 9.08877 21.4639C8.53861 21.4639 8.09298 21.022 8.09298 20.4765C8.09298 19.9316 8.53861 19.4897 9.08877 19.4897ZM9.08931 29.2348C9.64002 29.2348 10.0856 29.6761 10.0856 30.2216C10.0856 30.7665 9.64002 31.2084 9.08931 31.2084C8.53915 31.2084 8.09298 30.7665 8.09298 30.2216C8.09298 29.6761 8.53915 29.2348 9.08931 29.2348ZM9.08877 38.9798C9.63894 38.9798 10.0851 39.4218 10.0851 39.9672C10.0851 40.5121 9.63894 40.9535 9.08877 40.9535C8.53861 40.9535 8.09298 40.5121 8.09298 39.9672C8.09298 39.4218 8.53861 38.9798 9.08877 38.9798ZM9.08931 48.7255C9.64002 48.7255 10.0856 49.1669 10.0856 49.7129C10.0856 50.2572 9.64002 50.6986 9.08931 50.6986C8.53915 50.6986 8.09298 50.2572 8.09298 49.7129C8.09298 49.1669 8.53915 48.7255 9.08931 48.7255ZM9.08877 58.4695C9.63894 58.4695 10.0851 58.9114 10.0851 59.4563C10.0851 60.0013 9.63894 60.4437 9.08877 60.4437C8.53861 60.4437 8.09298 60.0013 8.09298 59.4563C8.09298 58.9114 8.53861 58.4695 9.08877 58.4695ZM9.08931 68.2146C9.64002 68.2146 10.0856 68.6571 10.0856 69.202C10.0856 69.7469 9.64002 70.1888 9.08931 70.1888C8.53915 70.1888 8.09298 69.7469 8.09298 69.202C8.09298 68.6571 8.53915 68.2146 9.08931 68.2146ZM9.08877 77.9597C9.63894 77.9597 10.0851 78.4021 10.0851 78.9471C10.0851 79.492 9.63894 79.9334 9.08877 79.9334C8.53861 79.9334 8.09298 79.492 8.09298 78.9471C8.09298 78.4021 8.53861 77.9597 9.08877 77.9597ZM17.6101 82.8325C18.1603 82.8325 18.6059 83.2744 18.6059 83.8194C18.6059 84.3648 18.1603 84.8067 17.6101 84.8067C17.0589 84.8067 16.6133 84.3648 16.6133 83.8194C16.6133 83.2744 17.0589 82.8325 17.6101 82.8325ZM26.1304 87.7053C26.6806 87.7053 27.1273 88.1467 27.1273 88.6916C27.1273 89.2366 26.6806 89.679 26.1304 89.679C25.5803 89.679 25.1346 89.2366 25.1346 88.6916C25.1346 88.1467 25.5803 87.7053 26.1304 87.7053ZM34.6513 82.8325C35.2014 82.8325 35.647 83.2744 35.647 83.8194C35.647 84.3648 35.2014 84.8067 34.6513 84.8067C34.1011 84.8067 33.6549 84.3648 33.6549 83.8194C33.6549 83.2744 34.1011 82.8325 34.6513 82.8325ZM43.1721 77.9597C43.7222 77.9597 44.1684 78.4021 44.1684 78.9471C44.1684 79.492 43.7222 79.9334 43.1721 79.9334C42.6214 79.9334 42.1752 79.492 42.1752 78.9471C42.1752 78.4021 42.6214 77.9597 43.1721 77.9597ZM60.2132 87.7053C60.7639 87.7053 61.2095 88.1467 61.2095 88.6916C61.2095 89.2366 60.7639 89.679 60.2132 89.679C59.663 89.679 59.2169 89.2366 59.2169 88.6916C59.2169 88.1467 59.663 87.7053 60.2132 87.7053ZM0.567947 73.5117C0.882096 73.5117 1.13643 73.7636 1.13643 74.0743C1.13643 74.3849 0.882096 74.6368 0.567947 74.6368C0.254337 74.6368 0 74.3849 0 74.0743C0 73.7636 0.254337 73.5117 0.567947 73.5117ZM0.567947 63.7661C0.882096 63.7661 1.13643 64.018 1.13643 64.3292C1.13643 64.6398 0.882096 64.8917 0.567947 64.8917C0.254337 64.8917 0 64.6398 0 64.3292C0 64.018 0.254337 63.7661 0.567947 63.7661ZM0.567947 54.0215C0.882096 54.0215 1.13643 54.2734 1.13643 54.5841C1.13643 54.8947 0.882096 55.1466 0.567947 55.1466C0.254337 55.1466 0 54.8947 0 54.5841C0 54.2734 0.254337 54.0215 0.567947 54.0215V54.0215ZM0.567947 44.277C0.882096 44.277 1.13643 44.5289 1.13643 44.8395C1.13643 45.1501 0.882096 45.402 0.567947 45.402C0.254337 45.402 0 45.1501 0 44.8395C0 44.5289 0.254337 44.277 0.567947 44.277ZM0.567947 34.5319C0.882096 34.5319 1.13643 34.7838 1.13643 35.0944C1.13643 35.405 0.882096 35.6569 0.567947 35.6569C0.254337 35.6569 0 35.405 0 35.0944C0 34.7838 0.254337 34.5319 0.567947 34.5319ZM26.1304 26.9328C27.9647 26.9328 29.4514 28.4054 29.4514 30.2221C29.4514 32.0394 27.9647 33.5119 26.1304 33.5119C24.2962 33.5119 22.8095 32.0394 22.8095 30.2221C22.8095 28.4054 24.2962 26.9328 26.1304 26.9328ZM0.567947 24.7862C0.882096 24.7862 1.13643 25.0382 1.13643 25.3493C1.13643 25.6599 0.882096 25.9118 0.567947 25.9118C0.254337 25.9118 0 25.6599 0 25.3493C0 25.0382 0.254337 24.7862 0.567947 24.7862Z" fill="#1E5DC5"/>
<path d="M235.284 56.4176H240.485V47.8323L241.991 46.6576L250.705 56.4176H257.32L245.96 43.2685L256.773 32.9203H250.066L240.485 42.184V24.7865H235.284V56.4176V56.4176ZM175.983 56.8243C169.024 56.8243 165.148 53.5254 165.148 46.2963V32.7847H170.349V45.7988C170.349 49.2317 171.877 52.0871 175.983 52.0871C179.763 52.0871 181.618 50.3909 181.618 45.7988V32.7847H186.819V46.2963C186.819 53.1775 182.943 56.8243 175.983 56.8243ZM114.37 56.4176V44.8051H121.123L129.837 56.4176H136.543L126.962 43.7654C131.206 42.5453 133.988 38.9758 133.988 34.6378C133.988 29.5766 131.342 24.7865 121.396 24.7865H108.85V56.4176H114.37ZM121.26 29.9379C126.643 29.9379 128.24 31.8812 128.24 34.6378C128.24 37.7558 125.73 39.6537 121.533 39.6537H114.37V29.9379H121.26V29.9379ZM136.132 44.6241C136.132 51.6729 141.425 56.8243 148.816 56.8243C156.297 56.8243 161.544 51.6729 161.544 44.6241C161.544 37.5295 156.297 32.3781 148.816 32.3781C141.288 32.3781 136.132 37.5295 136.132 44.6241ZM141.516 44.6241C141.516 40.015 144.664 37.1681 148.816 37.1681C152.921 37.1681 156.16 40.0603 156.16 44.6241C156.16 49.1426 153.149 52.0342 148.816 52.0342C144.481 52.0342 141.516 48.872 141.516 44.6241ZM193.337 48.239C193.337 53.8419 196.302 56.6888 200.819 56.6888C203.379 56.6888 205.626 55.6443 207.085 54.1136L204.421 50.5404C203.678 51.3036 202.751 51.8987 201.595 51.8987C199.45 51.8987 198.538 50.5884 198.538 46.7932V37.7104H203.85V32.9203H198.538V24.7865H193.337V32.9203H190.486V37.7104H193.337V48.239ZM226.67 49.7457C225.24 51.1621 223.21 52.0342 221.05 52.0342C217.126 52.0342 214.07 50.1363 213.659 46.4318H231.269C231.452 45.0308 231.543 43.901 231.543 43.1329C231.543 36.6259 226.799 32.3781 220.411 32.3781C212.473 32.3781 208.23 37.7558 208.23 44.6241C208.23 52.0342 213.34 56.8243 220.959 56.8243C224.228 56.8243 227.108 55.7003 229.38 53.4251L226.67 49.7457V49.7457ZM220.183 37.0326C223.514 37.0326 225.749 38.7047 226.16 41.9582H213.705C214.389 38.9305 216.67 37.0326 220.183 37.0326Z" fill="white"/>
<path fill-rule="evenodd" clip-rule="evenodd" d="M264.153 56.4223C266.277 56.4223 268 54.7166 268 52.6121C268 50.5082 266.277 48.8025 264.153 48.8025C262.029 48.8025 260.306 50.5082 260.306 52.6121C260.306 54.7166 262.029 56.4223 264.153 56.4223Z" fill="#4578BB"/>
<path d="M108.815 70.613C108.815 73.0041 110.683 74.7744 113.005 74.7744C115.326 74.7744 117.183 72.9811 117.183 70.613C117.183 68.222 115.326 66.4517 113.005 66.4517C110.648 66.4517 108.815 68.2908 108.815 70.613ZM110.683 70.613C110.683 69.1186 111.775 68.1761 113.005 68.1761C114.189 68.1761 115.314 69.1186 115.314 70.613C115.314 72.1074 114.281 73.0505 113.005 73.0505C111.775 73.0505 110.683 72.1074 110.683 70.613ZM120.085 74.6367V71.8891H121.373L123.358 74.6367H125.528L123.264 71.5673C124.24 71.1879 124.855 70.2453 124.855 69.211C124.855 67.8772 124.158 66.5899 121.57 66.5899H118.286V74.6367H120.085V74.6367ZM121.535 68.2567C122.684 68.2567 122.986 68.6362 122.986 69.211C122.986 69.8546 122.487 70.2224 121.605 70.2224H120.085V68.2567H121.535V68.2567ZM126.282 74.6367H128.685C132.097 74.6367 133.536 72.8087 133.536 70.5095C133.536 68.4061 132.34 66.5899 128.859 66.5899H126.282V74.6367ZM128.836 68.2567C130.948 68.2567 131.679 69.1533 131.679 70.5095C131.679 72.0044 130.867 72.9699 128.836 72.9699H128.081V68.2567H128.836ZM134.639 74.6367H140.952V72.9699H136.438V71.3602H140.558V69.7511H136.438V68.2567H140.848V66.5899H134.639V74.6367V74.6367ZM143.97 74.6367V71.8891H145.258L147.243 74.6367H149.413L147.15 71.5673C148.125 71.1879 148.74 70.2453 148.74 69.211C148.74 67.8772 148.044 66.5899 145.456 66.5899H142.171V74.6367H143.97V74.6367ZM145.421 68.2567C146.57 68.2567 146.871 68.6362 146.871 69.211C146.871 69.8546 146.373 70.2224 145.49 70.2224H143.97V68.2567H145.421V68.2567ZM161.368 74.6367C160.671 74.1195 159.94 73.4412 159.394 72.8434C160.3 71.8891 160.741 70.1647 160.741 68.8886H159.012C159.012 70.027 158.686 70.9007 158.21 71.4638C157.63 70.8548 157.248 70.4065 157.015 70.027C157.793 69.5211 158.327 68.7626 158.327 68.0726C158.327 67.13 157.7 66.4864 156.133 66.4864C154.659 66.4864 153.998 67.2795 153.998 68.0955C153.998 68.6362 154.218 69.1304 154.683 69.7164C153.499 70.3835 152.466 71.1078 152.466 72.4528C152.466 73.786 153.673 74.7403 155.704 74.7403C156.992 74.7403 157.688 74.269 158.222 73.8778C158.501 74.1308 158.675 74.3149 159.128 74.6367H161.368V74.6367ZM155.773 73.1306C154.729 73.1306 154.38 72.6134 154.38 72.2686C154.38 71.9009 154.601 71.6709 155.611 71.0731C155.959 71.5214 156.435 71.9927 156.992 72.6593C156.795 72.8893 156.33 73.1306 155.773 73.1306V73.1306ZM155.855 68.3255C155.855 68.0955 155.913 67.9808 156.168 67.9808C156.389 67.9808 156.47 68.1302 156.47 68.3255C156.47 68.5209 156.365 68.7162 156.145 68.8544C156.017 68.728 155.855 68.4979 155.855 68.3255ZM164.733 74.6367H171.047V72.9699H166.532V71.3602H170.653V69.7511H166.532V68.2567H170.942V66.5899H164.733V74.6367V74.6367ZM172.266 74.6367H174.065V71.6821H178.127V70.0153H174.065V68.2567H178.417V66.5899H172.266V74.6367ZM179.462 74.6367H181.261V71.6821H185.323V70.0153H181.261V68.2567H185.613V66.5899H179.462V74.6367ZM186.657 74.6367H192.971V72.9699H188.457V71.3602H192.577V69.7511H188.457V68.2567H192.867V66.5899H186.657V74.6367V74.6367ZM200.33 71.981C199.772 72.671 198.995 73.0505 198.09 73.0505C196.685 73.0505 195.652 72.0615 195.652 70.613C195.652 69.1186 196.662 68.1761 198.113 68.1761C198.775 68.1761 199.564 68.4867 200.051 69.0845L201.27 67.9808C200.69 67.0724 199.471 66.4517 197.985 66.4517C195.467 66.4517 193.784 68.3143 193.784 70.613C193.784 73.1076 195.409 74.7744 197.939 74.7744C199.378 74.7744 200.666 74.1767 201.398 73.1194L200.33 71.981V71.981ZM201.746 68.2567H204.346V74.6367H206.144V68.2567H208.756V66.5899H201.746V68.2567ZM209.569 74.6367H211.367V66.5899H209.569V74.6367ZM220.769 66.5899H218.831L216.521 71.9238L214.049 66.5899H212.064L215.882 74.6367H217.136L220.769 66.5899ZM221.407 74.6367H227.72V72.9699H223.206V71.3602H227.326V69.7511H223.206V68.2567H227.616V66.5899H221.407V74.6367V74.6367ZM236.019 74.6367V66.5899H234.266V71.372L230.32 66.5899H228.939V74.6367H230.692V69.8658L234.626 74.6367H236.019V74.6367ZM237.528 74.6367H243.842V72.9699H239.327V71.3602H243.447V69.7511H239.327V68.2567H243.737V66.5899H237.528V74.6367V74.6367ZM249.285 72.4063C249.285 72.8087 248.926 73.1535 248.02 73.1535C247.022 73.1535 246.152 72.6251 245.618 71.7744L244.306 72.8546C244.863 73.9013 246.105 74.8208 248.067 74.8208C249.819 74.8208 251.142 73.7283 251.142 72.2686C251.142 69.3604 246.616 70.0612 246.616 68.8315C246.616 68.3714 246.999 68.0726 247.835 68.0726C248.74 68.0726 249.413 68.5326 249.877 69.0386L251.084 67.889C250.388 66.9688 249.285 66.4058 247.904 66.4058C245.978 66.4058 244.759 67.5783 244.759 68.8544C244.759 71.7744 249.285 71.0043 249.285 72.4063V72.4063ZM256.47 72.4063C256.47 72.8087 256.11 73.1535 255.204 73.1535C254.207 73.1535 253.336 72.6251 252.802 71.7744L251.491 72.8546C252.048 73.9013 253.29 74.8208 255.251 74.8208C257.004 74.8208 258.327 73.7283 258.327 72.2686C258.327 69.3604 253.8 70.0612 253.8 68.8315C253.8 68.3714 254.183 68.0726 255.019 68.0726C255.924 68.0726 256.597 68.5326 257.062 69.0386L258.269 67.889C257.572 66.9688 256.47 66.4058 255.089 66.4058C253.162 66.4058 251.943 67.5783 251.943 68.8544C251.943 71.7744 256.47 71.0043 256.47 72.4063V72.4063Z" fill="white"/>
</svg>
