<svg width="220" height="220" viewBox="0 0 220 220" fill="none" xmlns="http://www.w3.org/2000/svg">
<path d="M199.883 46.582C202.157 43.7925 203.523 40.2351 203.523 36.3645C203.523 27.4312 196.255 20.1635 187.322 20.1635C183.734 20.1635 180.415 21.3379 177.728 23.3204C158.461 8.26418 134.522 0 110 0C90.1686 0 70.7339 5.33543 53.7969 15.4292C52.268 16.3402 51.7675 18.3184 52.6784 19.8473C53.5893 21.3761 55.5672 21.8771 57.0964 20.9662C64.5025 16.5524 72.417 13.1072 80.6412 10.6812C74.705 15.2522 69.1715 21.2253 64.2293 28.4973C60.0072 34.7097 56.32 41.7145 53.225 49.3157C47.4908 45.555 42.1132 41.2173 37.1886 36.3511C39.9867 33.5934 42.9584 30.974 46.0973 28.5093C47.4972 27.4102 47.7409 25.3846 46.6417 23.9847C45.5426 22.5848 43.5166 22.3416 42.1171 23.4403C29.2905 33.5122 18.6845 46.5326 11.4452 61.0938C3.85043 76.3679 0 92.8224 0 110C0 132.938 6.94891 154.804 20.1184 173.42C17.8441 176.21 16.4768 179.768 16.4768 183.64C16.4768 192.573 23.7445 199.841 32.6777 199.841C36.2682 199.841 39.5884 198.665 42.2774 196.68C61.5386 211.736 85.476 220 110 220C139.382 220 167.005 208.558 187.782 187.782C208.558 167.005 220 139.382 220 110C220 87.0624 213.052 65.1973 199.883 46.582V46.582ZM204.634 113.223H213.5C212.755 137.725 203.537 160.765 187.242 178.968C184.623 176.386 181.879 173.934 179.035 171.642C179.725 169.844 180.106 167.896 180.106 165.859C180.106 160.209 177.198 155.229 172.802 152.329C175.989 139.907 177.718 126.779 177.955 113.223H190.334C192.114 113.223 193.557 111.78 193.557 110C193.557 108.22 192.114 106.777 190.334 106.777H177.953C177.632 88.5113 174.585 70.996 169.131 55.4911C172.08 53.6074 174.946 51.5767 177.722 49.405C180.41 51.3898 183.731 52.5654 187.321 52.5654C190.053 52.5654 192.627 51.883 194.887 50.6846C206.493 67.2474 212.887 86.5176 213.5 106.777H204.634C202.855 106.777 201.412 108.22 201.412 110C201.412 111.78 202.855 113.223 204.634 113.223V113.223ZM42.2765 170.599C39.588 168.615 36.2678 167.439 32.6777 167.439C29.9471 167.439 27.3741 168.121 25.1148 169.319C13.5072 152.755 7.11262 133.484 6.49902 113.223H29.3605C30.6956 119.811 36.0396 124.96 42.7264 126.005C43.9484 139.645 46.7367 152.693 50.8879 164.515C47.9291 166.399 45.0536 168.428 42.2765 170.599V170.599ZM93.934 71.555C94.811 78.4549 100.04 84.0146 106.777 85.3798V106.777H61.1166C59.8778 100.664 55.1861 95.7911 49.173 94.285C50.3173 81.745 52.8292 69.7563 56.5383 58.8543C68.0913 65.2859 80.7666 69.6227 93.934 71.555ZM163.906 149.658C158.957 149.658 154.523 151.89 151.549 155.398C139.352 150.411 126.486 147.702 113.223 147.325V113.223H171.508C171.278 125.942 169.685 138.254 166.762 149.915C165.834 149.749 164.881 149.658 163.906 149.658V149.658ZM113.223 106.777V85.3798C119.96 84.0142 125.189 78.4545 126.066 71.5546C139.26 69.6236 151.917 65.3159 163.488 58.8642C168.432 73.3734 171.197 89.7162 171.507 106.777H113.223V106.777ZM125.591 65.1097C123.957 59.3179 119.179 54.8311 113.223 53.6241V6.59012C128.156 7.89895 142.19 18.2828 153.039 36.1685C156.137 41.2775 158.871 46.8312 161.225 52.739C150.232 59.0094 138.175 63.21 125.591 65.1097V65.1097ZM110 59.7463C115.379 59.7463 119.756 64.1227 119.756 69.502C119.756 74.8812 115.379 79.2576 110 79.2576C104.621 79.2576 100.244 74.8812 100.244 69.502C100.244 64.1227 104.621 59.7463 110 59.7463ZM45.2388 100.244C50.618 100.244 54.9944 104.621 54.9944 110C54.9944 115.379 50.618 119.756 45.2388 119.756C39.8612 119.756 35.4866 115.382 35.4836 110.006C35.4836 110.004 35.484 110.002 35.484 110C35.484 109.998 35.4836 109.996 35.4836 109.994C35.4862 104.618 39.8612 100.244 45.2388 100.244V100.244ZM49.1734 125.715C55.1865 124.209 59.8778 119.336 61.117 113.223H106.777V147.329C89.1168 147.85 71.8596 152.64 56.54 161.15C52.8305 150.247 50.3177 138.257 49.1734 125.715V125.715ZM106.777 153.777V213.405C93.1043 212.185 79.9949 203.234 69.5604 187.88C65.4066 181.768 61.7985 174.828 58.7946 167.27C73.3782 158.983 89.8795 154.306 106.777 153.777ZM113.223 153.774C125.395 154.142 137.207 156.597 148.422 161.089C147.956 162.597 147.705 164.199 147.705 165.858C147.705 171.686 150.799 176.803 155.429 179.657C144.445 199.898 129.319 211.981 113.223 213.408V153.774ZM154.15 165.859C154.15 160.479 158.526 156.103 163.906 156.103C169.285 156.103 173.661 160.479 173.661 165.859C173.661 171.238 169.285 175.614 163.906 175.614C158.526 175.614 154.15 171.238 154.15 165.859ZM197.078 36.3645C197.078 41.7437 192.702 46.1201 187.322 46.1201C181.943 46.1201 177.567 41.7437 177.567 36.3645C177.567 30.9852 181.943 26.6088 187.322 26.6088C192.702 26.6088 197.078 30.9852 197.078 36.3645ZM173.388 28.1132C171.95 30.5314 171.121 33.3523 171.121 36.3645C171.121 39.3753 171.95 42.1953 173.386 44.6132C171.245 46.273 169.048 47.8466 166.797 49.3264C164.405 43.465 161.65 37.9388 158.549 32.8264C152.959 23.6096 146.534 16.1975 139.536 10.7641C151.736 14.3958 163.241 20.258 173.388 28.1132V28.1132ZM69.5604 32.12C79.9949 16.7664 93.1043 7.81516 106.777 6.59484V53.6241C100.821 54.8311 96.0446 59.3166 94.4101 65.1075C81.8486 63.2057 69.7718 58.9746 58.7967 52.7244C61.8002 45.1688 65.4075 38.2306 69.5604 32.12ZM32.7435 41.0184C38.2929 46.49 44.382 51.3322 50.8896 55.4808C46.7371 67.3041 43.9489 80.3537 42.7264 93.9946C36.0396 95.04 30.6952 100.189 29.3605 106.777H6.49687C7.24668 82.1545 16.5679 59.0623 32.7435 41.0184V41.0184ZM32.6777 193.395C27.2985 193.395 22.9221 189.019 22.9221 183.64C22.9221 178.261 27.2985 173.884 32.6777 173.884C38.057 173.884 42.4334 178.261 42.4334 183.64C42.4334 189.019 38.057 193.395 32.6777 193.395ZM46.6151 191.886C48.0511 189.469 48.8787 186.649 48.8787 183.64C48.8787 180.63 48.0507 177.81 46.6146 175.393C48.7588 173.732 50.9609 172.155 53.2207 170.674C56.317 178.279 60.0054 185.288 64.2297 191.503C69.1548 198.75 74.6677 204.707 80.5806 209.272C68.3371 205.642 56.7918 199.767 46.6151 191.886V191.886ZM161.553 181.887C162.322 181.999 163.107 182.059 163.906 182.059C168.471 182.059 172.597 180.159 175.545 177.111C178.053 179.162 180.479 181.345 182.799 183.638C170.447 195.853 155.562 204.589 139.333 209.356C147.751 202.883 155.326 193.598 161.553 181.887V181.887Z" fill="#00D2A0"/>
</svg>
