<svg width="150" height="220" viewBox="0 0 150 220" fill="none" xmlns="http://www.w3.org/2000/svg">
<path d="M145.922 178.253C144.142 178.253 142.699 179.696 142.699 181.476V211.774C142.699 212.755 141.901 213.554 140.92 213.554H123.596V150.09C123.596 148.311 122.153 146.868 120.373 146.868C118.594 146.868 117.151 148.311 117.151 150.09V213.554H82.2664L92.3826 202.425C93.4877 201.209 94.0089 199.477 93.7765 197.79C93.7722 197.758 93.767 197.725 93.7614 197.692L84.1266 140.773L86.7223 136.865C88.1575 137.885 89.263 138.866 91.3363 138.866C93.4452 138.866 95.417 137.686 96.3873 135.743V135.742L106.549 115.375L129.699 124.34C130.537 124.7 142.698 130.176 142.698 144.638V166.436C142.698 168.215 144.141 169.659 145.921 169.659C147.701 169.659 149.143 168.216 149.143 166.436V144.638C149.143 125.584 132.829 118.658 132.134 118.372C132.114 118.363 132.093 118.355 132.073 118.348L93.5436 103.426V94.3899C99.6632 89.6307 103.906 82.5756 104.972 74.5267C108.023 74.3119 110.854 73.1723 113.166 71.1842C116.186 68.5876 117.918 64.8085 117.918 60.8175C117.918 57.5055 116.723 54.343 114.594 51.8788V39.9407C114.593 17.9175 96.676 0 74.6528 0C52.6296 0 34.7125 17.9175 34.7125 39.9407V52.1916C32.5602 54.6309 31.3897 57.6336 31.3897 60.8171C31.3897 64.8093 33.1214 68.588 36.1416 71.185C38.4521 73.1723 41.2816 74.3106 44.3319 74.5259C45.4057 82.7256 49.7726 90.0436 56.4134 94.8668V103.426L17.9259 118.347C17.9057 118.355 17.8855 118.363 17.8653 118.371C17.1705 118.657 0.856125 125.583 0.856125 144.637V211.774C0.856125 216.309 4.54585 219.999 9.0812 219.999H39.7854C41.5652 219.999 43.008 218.556 43.008 216.776C43.008 214.996 41.5652 213.553 39.7854 213.553H32.8515V150.09C32.8515 148.311 31.4086 146.868 29.6289 146.868C27.8491 146.868 26.4062 148.311 26.4062 150.09V213.554H9.08163C8.10066 213.554 7.3023 212.756 7.3023 211.775V144.638C7.3023 130.127 19.5454 124.663 20.2973 124.342L43.4291 115.374L53.5921 135.742C54.5645 137.69 56.5389 138.866 58.6435 138.866C60.7064 138.866 61.8013 137.9 63.2575 136.865L65.8532 140.773L56.2192 197.693C56.2136 197.725 56.2089 197.757 56.2042 197.79C55.9713 199.476 56.4925 201.209 57.5981 202.426L67.7142 213.555H54.8257C53.046 213.555 51.6031 214.998 51.6031 216.777C51.6031 218.557 53.046 220 54.8257 220H140.92C145.455 220 149.145 216.31 149.145 211.775V181.476C149.144 179.696 147.701 178.253 145.922 178.253ZM100.513 113.037L91.0385 132.025C90.803 131.858 85.7821 128.291 79.6445 123.933C82.3077 120.645 79.192 124.491 91.347 109.488L100.513 113.037ZM81.4638 133.131L79.0068 136.83H70.9704L68.5134 133.131L74.9888 128.532L81.4638 133.131ZM62.8583 104.466V98.435C66.7736 100.013 70.9579 100.745 75.0443 100.745C79.2694 100.745 83.4128 99.8443 87.0978 98.233V104.492L74.9888 119.439L62.8583 104.466ZM111.472 60.8175C111.472 62.9286 110.557 64.9262 108.963 66.2973C107.909 67.204 106.636 67.7836 105.242 68.0105V53.6259C108.946 54.2274 111.472 57.2997 111.472 60.8175ZM44.0655 68.0105C40.3195 67.4025 37.835 64.3053 37.835 60.8171C37.835 57.3719 40.6912 54.5677 44.0655 53.7879V68.0105ZM44.2387 47.2209C43.2121 47.3387 42.0357 47.6167 41.1587 47.9149V39.9407C41.1587 21.4715 56.184 6.44574 74.6532 6.44574C93.1225 6.44574 108.148 21.4715 108.148 39.9407V47.6936C107.211 47.4087 106.24 47.2205 105.242 47.132C105.242 44.0223 105.269 44.6222 95.0965 33.6854C93.2256 31.6753 90.131 31.2542 87.7759 32.7929C76.5482 40.1272 62.8519 43.8118 50.2148 42.9043C47.4428 42.6968 44.918 44.5225 44.2387 47.2209ZM50.5112 70.5478V50.4419V49.3827C64.4224 50.1974 79.0073 46.0646 90.7897 38.5189C95.4553 43.5282 97.9818 46.1557 98.7965 47.1552C98.7965 49.6835 98.7965 67.6534 98.7965 70.5474C98.7965 83.6301 88.1291 94.2988 75.0447 94.2988C60.352 94.2992 50.5112 82.9013 50.5112 70.5478ZM58.9396 132.025L49.4654 113.037L58.6147 109.494L70.3198 123.942C64.3674 128.169 59.4797 131.642 58.9396 132.025ZM62.637 198.388L71.9651 143.275H78.0112L87.3393 198.388L74.9884 211.976L62.637 198.388Z" fill="#1E5DC5"/>
</svg>
