<svg width="220" height="202" viewBox="0 0 220 202" fill="none" xmlns="http://www.w3.org/2000/svg">
<path d="M194.604 15.9206C192.82 15.9206 191.375 17.3665 191.375 19.1497V51.0944H132.834L132.622 50.6578C134.052 47.4996 134.855 43.999 134.855 40.3122C134.855 27.5252 125.27 16.9415 112.909 15.3513V3.46696C112.909 1.68375 111.463 0.237854 109.679 0.237854C107.896 0.237854 106.45 1.68375 106.45 3.46696V15.3513C94.0891 16.942 84.5036 27.5252 84.5036 40.3122C84.5036 44.1691 85.3776 47.824 86.9344 51.0944H28.6258V19.1497C28.6258 17.3665 27.1799 15.9206 25.3967 15.9206C11.3932 15.9206 0 27.3138 0 41.3177V178.468C0 178.706 0.0275 178.938 0.0764844 179.161C0.5225 185.104 3.09332 190.625 7.38977 194.816C11.9823 199.295 18.0443 201.762 24.4608 201.762H195.539C201.955 201.762 208.018 199.296 212.61 194.816C216.907 190.625 219.477 185.104 219.923 179.161C219.972 178.938 220 178.706 220 178.468V41.3177H220C220 27.3138 208.607 15.9206 194.604 15.9206ZM172.266 147.245C168.548 148.307 164.602 148.199 160.88 146.896C156.122 145.229 152.298 141.81 150.107 137.257L114.98 64.9213C117.539 64.3709 119.952 63.4286 122.159 62.1631C122.271 62.0995 122.382 62.0359 122.492 61.9711C122.662 61.8705 122.829 61.7674 122.996 61.6634C123.172 61.5538 123.345 61.4421 123.518 61.3278C123.637 61.25 123.755 61.1718 123.872 61.0919C124.147 60.9041 124.418 60.7112 124.685 60.5127C124.705 60.4985 124.725 60.4848 124.743 60.4706C126.111 59.4501 127.379 58.2908 128.522 57.0034L172.266 147.245ZM109.391 91.8704C107.608 91.8704 106.162 93.3163 106.162 95.0995V101.688H94.392L110.043 69.5396L125.654 101.688H112.619V95.0995C112.62 93.3163 111.174 91.8704 109.391 91.8704ZM109.68 21.595C120.001 21.595 128.398 29.9916 128.398 40.3127C128.398 43.6376 127.522 46.7606 125.996 49.4702C125.886 49.6648 125.776 49.859 125.66 50.049C125.55 50.2286 125.435 50.4047 125.319 50.58C125.241 50.6982 125.162 50.8151 125.082 50.9315C124.956 51.1133 124.83 51.2946 124.697 51.4712C124.638 51.5511 124.575 51.6285 124.514 51.7071C124.257 52.0418 123.988 52.3671 123.709 52.6829C123.627 52.7753 123.546 52.869 123.463 52.9597C123.319 53.1169 123.171 53.2703 123.022 53.4224C122.913 53.5329 122.803 53.6407 122.692 53.7481C122.554 53.8818 122.417 54.0163 122.274 54.146C122.035 54.3639 121.79 54.5761 121.54 54.7811C121.441 54.8623 121.338 54.9397 121.238 55.0187C121.034 55.179 120.828 55.3358 120.618 55.4871C120.531 55.5494 120.444 55.6117 120.357 55.6723C117.368 57.7477 113.79 58.9504 110.032 59.02H110.031C110.012 59.0204 109.992 59.0208 109.977 59.0213C109.973 59.0213 109.969 59.0221 109.965 59.0221C109.962 59.0221 109.958 59.0217 109.955 59.0217L109.68 59.0294C109.297 59.0294 108.915 59.0148 108.536 58.9912C108.45 58.986 108.365 58.9779 108.279 58.9718C107.956 58.9474 107.632 58.916 107.312 58.8747C107.261 58.8683 107.209 58.8623 107.158 58.855C103.552 58.3591 100.175 56.8144 97.4454 54.4597C97.4205 54.4382 97.3955 54.4167 97.3706 54.3948C97.0845 54.1456 96.8047 53.8878 96.5336 53.6201C96.5254 53.6119 96.5168 53.6042 96.5087 53.596C96.2453 53.3356 95.9909 53.0649 95.7421 52.7882C95.6712 52.7091 95.6025 52.6275 95.5333 52.5472C95.3653 52.3538 95.202 52.1566 95.0413 51.9555C94.9575 51.8502 94.8733 51.7449 94.7916 51.6379C94.6185 51.4115 94.4509 51.1799 94.288 50.9444C94.2163 50.8409 94.1445 50.7365 94.0749 50.6316C93.9086 50.3811 93.7484 50.1263 93.5937 49.8668C91.9248 47.0678 90.9631 43.8009 90.9631 40.3127C90.9627 29.9911 99.3596 21.595 109.68 21.595ZM213.542 161.561C213.155 161.128 212.757 160.702 212.337 160.292C208.346 156.395 203.285 153.963 197.832 153.273V134.391C197.832 132.608 196.387 131.162 194.603 131.162C192.82 131.162 191.374 132.608 191.374 134.391V156.3C191.374 158.083 192.82 159.529 194.603 159.529C194.606 159.529 194.608 159.529 194.611 159.529C194.929 159.529 195.244 159.538 195.559 159.553C195.638 159.557 195.718 159.566 195.797 159.57C196.035 159.585 196.274 159.601 196.51 159.624C196.583 159.632 196.656 159.643 196.728 159.651C196.973 159.678 197.217 159.707 197.459 159.743C197.508 159.751 197.557 159.761 197.606 159.768C197.873 159.811 198.139 159.857 198.403 159.911C198.423 159.915 198.443 159.92 198.463 159.925C204.288 161.136 209.141 165.03 211.666 170.252C211.673 170.267 211.68 170.282 211.686 170.296C211.806 170.545 211.919 170.796 212.028 171.05C212.055 171.112 212.08 171.175 212.105 171.238C212.19 171.443 212.272 171.649 212.35 171.858C212.392 171.972 212.432 172.086 212.473 172.201C212.528 172.359 212.582 172.517 212.634 172.676C212.686 172.841 212.736 173.006 212.784 173.173C212.816 173.283 212.848 173.393 212.878 173.504C212.936 173.715 212.988 173.928 213.039 174.142C213.054 174.209 213.07 174.276 213.085 174.343C213.14 174.595 213.192 174.847 213.238 175.102C213.243 175.132 213.249 175.163 213.254 175.193C213.303 175.477 213.347 175.763 213.384 176.051C213.384 176.053 213.384 176.055 213.385 176.057C213.461 176.659 213.509 177.268 213.528 177.882C213.217 187.659 205.333 195.304 195.539 195.304H24.4613C14.6678 195.304 6.78391 187.658 6.47367 177.883C6.49215 177.269 6.53984 176.66 6.61633 176.058C6.61676 176.055 6.61719 176.053 6.61719 176.05C6.65328 175.763 6.69711 175.478 6.74652 175.194C6.75211 175.163 6.7577 175.132 6.76328 175.101C6.8084 174.847 6.85953 174.595 6.91539 174.344C6.93043 174.276 6.94633 174.208 6.96223 174.141C7.01164 173.928 7.06535 173.716 7.12207 173.505C7.15215 173.394 7.18438 173.283 7.21617 173.172C7.2643 173.006 7.31371 172.841 7.36656 172.676C7.41769 172.517 7.47184 172.359 7.52727 172.202C7.56723 172.087 7.60719 171.971 7.65016 171.857C7.72793 171.649 7.81 171.443 7.89465 171.238C7.92043 171.176 7.94578 171.112 7.97242 171.049C8.08113 170.795 8.19457 170.544 8.31359 170.296C8.32047 170.281 8.32691 170.267 8.33422 170.252C10.8599 165.027 15.7171 161.131 21.5458 159.922C21.5621 159.919 21.5785 159.915 21.5948 159.911C21.8621 159.857 22.1319 159.81 22.4035 159.767C22.4486 159.759 22.4937 159.75 22.5397 159.743C22.785 159.706 23.0325 159.677 23.2809 159.649C23.3505 159.641 23.4197 159.631 23.4897 159.624C23.7291 159.6 23.9705 159.584 24.212 159.569C24.2885 159.564 24.365 159.556 24.4415 159.552C24.7577 159.536 25.0766 159.528 25.3967 159.528C27.1799 159.528 28.6258 158.082 28.6258 156.299V83.6299V83.6295C28.6258 81.8463 27.1799 80.4004 25.3967 80.4004C23.6135 80.4004 22.1676 81.8463 22.1676 83.6295V83.6299V153.274C16.7148 153.963 11.6536 156.395 7.66262 160.293C7.24281 160.703 6.84492 161.128 6.45777 161.562V41.3177C6.45777 31.9759 13.258 24.1912 22.1676 22.6542V70.7135V70.7139C22.1676 72.4971 23.6135 73.943 25.3967 73.943C27.1799 73.943 28.6258 72.4971 28.6258 70.7139V70.7135V57.5521H84.1186L79.4316 67.2034L77.2836 71.6261C76.5041 73.2302 77.1732 75.162 78.7776 75.9415C78.8868 75.9943 78.9968 76.039 79.1085 76.079C79.1377 76.0893 79.1673 76.0966 79.1966 76.1065C79.2773 76.1327 79.359 76.1572 79.4406 76.1765C79.4806 76.186 79.5201 76.1929 79.5605 76.2006C79.6327 76.2148 79.7053 76.2281 79.7775 76.2371C79.8209 76.2427 79.8643 76.2466 79.9081 76.2504C79.9773 76.2565 80.0465 76.2603 80.1157 76.262C80.1393 76.2625 80.1629 76.2659 80.1861 76.2659C80.2033 76.2659 80.2201 76.2625 80.2373 76.2625C80.3632 76.2603 80.4878 76.253 80.612 76.2367C80.6201 76.2354 80.6283 76.2354 80.6364 76.2341C80.7671 76.2156 80.8947 76.1873 81.0214 76.1533C81.0563 76.1439 81.0906 76.1331 81.1254 76.1228C81.2286 76.0915 81.3295 76.0554 81.4288 76.0137C81.4537 76.0034 81.4791 75.9943 81.504 75.9836C81.6226 75.9308 81.7373 75.8706 81.849 75.8031C81.8774 75.7859 81.9049 75.767 81.9328 75.749C82.0209 75.6927 82.1064 75.6313 82.1889 75.5664C82.216 75.5449 82.2435 75.5243 82.2701 75.5019C82.3707 75.4173 82.4673 75.3262 82.5576 75.2286C82.5743 75.2106 82.5889 75.1913 82.6053 75.1728C82.68 75.0881 82.7509 74.9983 82.8171 74.9047C82.839 74.8737 82.8605 74.8432 82.8816 74.8114C82.9576 74.6954 83.0298 74.5759 83.0917 74.4479L83.0921 74.4475L83.6859 73.225L91.315 57.5173C91.4521 57.663 91.5935 57.8031 91.7336 57.9453C91.804 58.0171 91.8736 58.0905 91.945 58.1614C92.143 58.3574 92.345 58.5486 92.5491 58.7377C92.8048 58.9757 93.066 59.2069 93.332 59.4342C93.39 59.4836 93.4471 59.5356 93.506 59.585C93.7359 59.7779 93.9705 59.9649 94.2068 60.15C94.2348 60.172 94.2623 60.1939 94.2902 60.2154C97.3844 62.6139 101.049 64.306 105.045 65.0532L69.8895 137.268C68.6284 139.888 66.8383 142.084 64.7079 143.791C60.0218 147.547 53.6912 148.934 47.7387 147.244L77.3906 86.1895C77.6342 85.6885 77.7365 85.1549 77.712 84.6349C77.66 83.4907 76.9991 82.41 75.8961 81.8742C74.2921 81.0956 72.3602 81.7638 71.5808 83.3682L62.6832 101.689H50.484C48.7008 101.689 47.2549 103.135 47.2549 104.918C47.2549 106.702 48.7008 108.147 50.484 108.147H59.547L40.3923 147.588C40.3455 147.684 40.3038 147.783 40.2669 147.882C40.1199 148.282 40.0537 148.704 40.0705 149.125C40.083 149.441 40.1414 149.757 40.2475 150.06C40.5298 150.871 41.1232 151.536 41.8967 151.908C43.2214 152.546 44.5745 153.058 45.9426 153.448C48.2225 154.099 50.5441 154.413 52.8447 154.413C62.2776 154.412 71.3487 149.126 75.7023 140.082L91.2489 108.147H106.162V118.008C106.162 119.792 107.608 121.237 109.392 121.237C111.175 121.237 112.621 119.792 112.621 118.008V108.147H128.792L144.293 140.069C147.228 146.166 152.361 150.756 158.747 152.992C161.487 153.951 164.317 154.428 167.138 154.428C170.421 154.428 173.69 153.782 176.788 152.498C177.231 152.314 177.67 152.118 178.105 151.908C178.878 151.536 179.471 150.872 179.753 150.062C180.036 149.252 179.984 148.362 179.61 147.591L160.49 108.147H168.298C170.082 108.147 171.527 106.702 171.527 104.918C171.527 103.135 170.082 101.689 168.298 101.689H157.359L135.965 57.553H191.374V121.476C191.374 123.259 192.82 124.705 194.603 124.705H194.604C196.387 124.705 197.833 123.259 197.833 121.476V22.6542C206.742 24.1912 213.542 31.9754 213.542 41.3177V161.561V161.561Z" fill="#1E5DC5"/>
</svg>
