<svg width="218" height="220" viewBox="0 0 218 220" fill="none" xmlns="http://www.w3.org/2000/svg">
<path d="M211.005 97.0479H169.045C167.495 86.9713 163.503 77.4301 157.396 69.23C157.397 69.1565 157.402 69.0843 157.402 69.0108C157.402 58.5415 151.463 49.4394 142.781 44.8839C144.723 40.3077 144.291 35.0225 141.587 30.8082L146.012 26.3725C148.351 24.041 149.641 20.9275 149.644 17.606C149.646 14.2785 148.358 11.156 146.017 8.81332L140.836 3.62957C138.496 1.28863 135.379 0 132.056 0C132.052 0 132.048 0 132.045 0C128.724 0.00300781 125.612 1.29336 123.287 3.62742L118.848 8.05965C116.438 6.51406 113.629 5.68219 110.686 5.68219C106.632 5.68219 102.829 7.25312 99.9783 10.1058L84.2891 25.8032C83.0211 27.0716 83.0219 29.1277 84.2904 30.3952C85.5588 31.6632 87.6145 31.6624 88.8829 30.3944L104.572 14.697C106.196 13.0715 108.367 12.1765 110.686 12.1765C113.004 12.1765 115.175 13.0715 116.8 14.697L134.95 32.8569C134.951 32.8573 134.951 32.8578 134.951 32.8578C137.557 35.4664 138.169 39.3555 136.693 42.5734C134.606 42.0587 132.427 41.7807 130.183 41.7807C115.175 41.7807 102.965 53.9963 102.965 69.0113C102.965 71.4794 103.301 73.8693 103.919 76.1441L90.6377 89.4433C89.0135 91.0684 86.8397 91.9634 84.5177 91.9634C82.1957 91.9634 80.0223 91.0684 78.3985 89.4442L60.2593 71.2834C56.9171 67.9392 56.9421 62.5372 60.3194 58.9823L78.3959 39.9115C79.6296 38.61 79.575 36.5544 78.273 35.3207C76.9711 34.0875 74.9159 34.1417 73.6823 35.4436L55.6079 54.5119C50.5732 59.8112 49.9175 67.5482 53.6201 73.3296L49.1802 77.7717C44.3514 82.6031 44.3496 90.4767 49.1832 95.33L54.3695 100.506C56.7006 102.847 59.8128 104.137 63.1339 104.14H63.1446C66.4674 104.14 69.5848 102.851 71.9266 100.508L76.3459 96.0786C78.7582 97.6254 81.57 98.4582 84.5173 98.4582C88.5748 98.4582 92.3797 96.8872 95.2319 94.0337L106.625 82.625C111.338 90.7569 120.129 96.2423 130.183 96.2423C134.039 96.2423 137.707 95.431 141.034 93.9782C142.547 98.0177 143.314 102.274 143.314 106.673C143.314 117.818 138.116 128.431 129.361 135.277H64.3005C62.5069 135.277 61.0533 136.731 61.0533 138.524C61.0533 140.317 62.5069 141.771 64.3005 141.771H130.453H130.457H130.459H138.797C140.962 141.771 142.724 143.54 142.724 145.714V151.734C142.724 153.902 140.962 155.665 138.797 155.665H16.2485C14.0769 155.665 12.3091 153.901 12.3091 151.734V145.714C12.3091 143.54 14.0764 141.771 16.2485 141.771H49.264C51.0575 141.771 52.5111 140.317 52.5111 138.524C52.5111 136.731 51.0575 135.277 49.264 135.277H16.2485C10.4954 135.277 5.81483 139.959 5.81483 145.714V151.735C5.81483 157.483 10.495 162.16 16.2485 162.16H22.3166V166.73C22.3166 172.838 27.2842 177.808 33.3896 177.808H63.3552V196.762H11.9168C5.51233 196.762 0.301941 201.975 0.301941 208.382V215.621C0.301941 218.035 2.26647 220 4.68132 220H141.775C144.19 220 146.154 218.035 146.154 215.62V208.381C146.154 201.974 140.944 196.761 134.54 196.761H122.344V162.159H138.797C144.038 162.159 148.385 158.269 149.11 153.224C154.045 148.764 158.197 143.627 161.453 137.966V194.062C161.453 208.364 173.083 220 187.379 220C201.675 220 213.305 208.364 213.305 194.062V119.514C215.864 118.573 217.698 116.117 217.698 113.235V103.755C217.698 100.057 214.696 97.0479 211.005 97.0479V97.0479ZM67.3319 95.9191C66.2194 97.0325 64.7332 97.6452 63.1455 97.6452C63.1437 97.6452 63.142 97.6452 63.1403 97.6452C61.5569 97.6439 60.0771 97.032 58.965 95.9161L53.7791 90.7397C51.4734 88.425 51.4717 84.6669 53.7748 82.3625L57.9621 78.173L71.5067 91.734L67.3319 95.9191ZM33.3896 171.313C30.8648 171.313 28.8104 169.257 28.8104 166.73V162.159H63.3552V171.313H33.3896ZM139.66 208.381V213.505H6.79624V208.381C6.79624 205.555 9.09335 203.256 11.9168 203.256H66.6019H119.096H134.54C137.363 203.256 139.66 205.555 139.66 208.381V208.381ZM115.85 196.761H69.849V174.56V162.159H115.849V196.761H115.85ZM137.245 25.9652L123.69 12.4029L127.883 8.21648C128.987 7.10746 130.468 6.49602 132.051 6.4943H132.057C133.643 6.4943 135.131 7.10703 136.243 8.22035L141.424 13.4041C142.538 14.5191 143.151 16.0093 143.15 17.6004C143.149 19.1855 142.537 20.6675 141.421 21.7796L137.245 25.9652ZM130.184 89.7471C118.757 89.7471 109.46 80.4448 109.46 69.0108C109.46 57.5768 118.757 48.275 130.184 48.275C141.61 48.275 150.907 57.5773 150.907 69.0108C150.907 80.4448 141.611 89.7471 130.184 89.7471ZM161.453 119.514V120.961C159.198 129.589 154.97 137.449 149.085 144.054C148.291 139.096 143.998 135.294 138.831 135.277C145.81 127.492 149.809 117.287 149.809 106.673C149.809 101.099 148.762 95.7168 146.701 90.6344C150.752 87.5295 153.911 83.316 155.715 78.4476C159.071 84.2278 161.367 90.5648 162.489 97.1721C159.401 97.7664 157.061 100.491 157.061 103.755V113.236C157.06 116.117 158.894 118.574 161.453 119.514V119.514ZM206.811 194.062C206.811 204.783 198.094 213.505 187.379 213.505C176.664 213.505 167.947 204.783 167.947 194.062V190.193H174.939C176.732 190.193 178.186 188.739 178.186 186.946C178.186 185.152 176.732 183.699 174.939 183.699H167.947V174.619H174.939C176.732 174.619 178.186 173.165 178.186 171.372C178.186 169.578 176.732 168.125 174.939 168.125H167.947V159.032H170.668C177.538 159.032 180.013 159.989 182.878 161.097C186.529 162.507 190.666 164.106 202.418 164.154L206.811 164.169V194.062ZM206.811 157.673L202.442 157.659C191.89 157.615 188.499 156.305 185.219 155.038C182.037 153.808 178.748 152.537 170.668 152.537H167.947V119.93H206.81V157.673H206.811ZM211.204 113.235C211.204 113.338 211.107 113.435 211.005 113.435H163.753C163.651 113.435 163.554 113.338 163.554 113.235V103.755C163.554 103.633 163.659 103.543 163.753 103.543H166.193H166.197H166.201H211.005C211.098 103.543 211.203 103.633 211.203 103.755V113.235H211.204Z" fill="#00D2A0"/>
</svg>
